<svg xmlns="http://www.w3.org/2000/svg" viewBox="0 0 184.58 237"><defs><style>.cls-1{fill:#f9d4b9;}.cls-2{fill:#265788;}.cls-3{fill:#3571b7;}.cls-4{fill:#5e9cd4;}.cls-5{fill:#a09d9c;}.cls-10,.cls-12,.cls-6,.cls-7{fill:none;stroke-miterlimit:10;}.cls-6{stroke:#f07e19;stroke-width:3px;}.cls-7{stroke:#c78a67;}.cls-8{fill:#1d1d1b;}.cls-9{fill:#fff;}.cls-10{stroke:#1d1d1b;stroke-width:2px;}.cls-11{fill:#5b2d13;}.cls-12{stroke:#2d2724;}</style></defs><g id="Lag_2" data-name="Lag 2"><g id="hoved"><path class="cls-1" d="M615.45,214.87c-1.66,9.17-4.27,22.9-8,40q5,5.5,10,11c1.81-4.32,4.4-10.85,7-19,2.93-9.2,2.59-10.11,5-18,5.26-17.18,8.93-19.44,11-32,.95-5.79,2.65-16.14-2-19-3.17-1.94-7.91.42-9,1C620.58,183.61,619,195.46,615.45,214.87Z" transform="translate(-595.44 -67.96)"/><path class="cls-1" d="M618.45,262.87c2.95,6.9-1.56,13.81-5,17-3.09,2.86-9.54,6.66-14,4-4.09-2.43-4-8.77-4-11,.06-6.51,3.38-17.21,11-18C611.4,254.36,616.45,258.22,618.45,262.87Z" transform="translate(-595.44 -67.96)"/><path class="cls-2" d="M612.05,222.15c-3.52,19.6-10.5,25.9-6,33,2.44,3.85,7.62,6.92,12,6a8,8,0,0,0,1-.3c5.52-2.18,12.9-29.15,15.44-38.89a84.56,84.56,0,0,0,5-18s1.31-8.15-1-23c-.16-1.06-.5-3-2-4-3-2-8.23,1.43-9.41,2.19a24.22,24.22,0,0,0-9,11C613.85,201.12,614.11,210.73,612.05,222.15Z" transform="translate(-595.44 -67.96)"/><path class="cls-1" d="M760,209.87c1.66,9.17,4.27,22.9,8,40l-10,11c-1.82-4.32-4.4-10.85-7-19-2.93-9.2-2.59-10.11-5-18-5.26-17.18-8.93-19.44-11-32-.95-5.79-2.66-16.14,2-19,3.17-1.94,7.91.42,9,1C754.89,178.61,756.51,190.46,760,209.87Z" transform="translate(-595.44 -67.96)"/><path class="cls-1" d="M757,257.87c-3,6.9,1.56,13.81,5,17,3.09,2.86,9.54,6.66,14,4,4.08-2.43,4-8.77,4-11-.06-6.51-3.39-17.21-11-18C764.07,249.36,759,253.22,757,257.87Z" transform="translate(-595.44 -67.96)"/><path class="cls-2" d="M762.46,217c3.53,19.6,10.5,25.9,6,33-2.44,3.85-7.62,6.92-12,6-2.83-.6-7.35-3.29-15-39.5,0,0-8.07-38.19-1-42.5a7.45,7.45,0,0,1,3-1,7.18,7.18,0,0,1,4,1c6,3.29,9,11,9,11C760.66,195.93,760.41,205.54,762.46,217Z" transform="translate(-595.44 -67.96)"/><ellipse class="cls-3" cx="91.52" cy="101" rx="40.5" ry="24"/><ellipse class="cls-4" cx="91.52" cy="102" rx="32.5" ry="16"/><path class="cls-1" d="M732.46,303l-86,2a250.87,250.87,0,0,0-5-71c-5.89-26.85-15.24-47.18-6-56,8.68-8.29,26.43.61,34-10,4.39-6.15.53-12.23,6-17s15.83-4.77,21,0,1.08,10.69,5,16c7.69,10.43,30.11-2.71,40,6,9.13,8,.43,28.38-5,56A271.68,271.68,0,0,0,732.46,303Z" transform="translate(-595.44 -67.96)"/><path class="cls-5" d="M732.46,263a289.72,289.72,0,0,0,1,42h-87c-.06-19.8-1-36.08-2-48s-1.5-18-3-25c-3.18-14.8-6.78-19.41-8-31a70,70,0,0,1,2-25,28.7,28.7,0,0,1,7-4,30.34,30.34,0,0,1,12-2,35.91,35.91,0,0,1,8,1c1.41,2.27,6.8,10.38,17,13,11.4,2.93,24.16-2.19,32-13a45.59,45.59,0,0,1,30,1,87,87,0,0,0-1,18c.21,4.06.9,11.93,0,19a70,70,0,0,1-3,13C733.93,233.39,733.39,244,732.46,263Z" transform="translate(-595.44 -67.96)"/><path class="cls-3" d="M641.46,234c-3.29-14.66-7-18-9-33-1.41-10.49-2.46-19.3,3-25,4.65-4.85,12.35-5.71,15-6a29.67,29.67,0,0,1,12,1c10.95,4,13.94,27.75,14,60a542.87,542.87,0,0,1-5,74h-25c-.53-16.3-1.31-29.92-2-40C643.34,248.4,642.81,240,641.46,234Z" transform="translate(-595.44 -67.96)"/><path class="cls-3" d="M734.46,240a310.81,310.81,0,0,1,7-31,94,94,0,0,0,4-20c.66-8,1-12.6-2-16-3.94-4.51-11.31-4.26-19-4-3.43.12-9.31.32-13,2-11.7,5.34-11.72,30.35-10.56,59.83.76,19.16,2.17,44.31,5,74l27.56.17c-1-13.56-1.16-25.12-1-34C732.71,257.43,732.81,250.15,734.46,240Z" transform="translate(-595.44 -67.96)"/><path class="cls-6" d="M664,178.46a58.79,58.79,0,0,0-3,19c.13,11.48,3.73,16.78,5,28a69.42,69.42,0,0,1-2,25.5" transform="translate(-595.44 -67.96)"/><path class="cls-6" d="M712,180.46a89.31,89.31,0,0,1,1,21c-.85,12-3.7,17.06-4,28a70.16,70.16,0,0,0,3,22" transform="translate(-595.44 -67.96)"/><circle class="cls-1" cx="92.52" cy="50.5" r="43.5"/><path class="cls-1" d="M646.46,128a10,10,0,0,1,0-20" transform="translate(-595.44 -67.96)"/><path class="cls-1" d="M729.23,127.5a10,10,0,0,0,0-20" transform="translate(-595.44 -67.96)"/><path class="cls-7" d="M695.44,125.28c.92,2.37-2.52,8-8,8s-8.92-5.63-8-8" transform="translate(-595.44 -67.96)"/><ellipse class="cls-8" cx="76.02" cy="45" rx="3" ry="9"/><ellipse class="cls-9" cx="76.02" cy="41" rx="1" ry="3"/><ellipse class="cls-8" cx="106.02" cy="45" rx="3" ry="9"/><ellipse class="cls-9" cx="106.02" cy="41" rx="1" ry="3"/><path class="cls-10" d="M712.06,130.19a26.48,26.48,0,0,1-48,4" transform="translate(-595.44 -67.96)"/><path class="cls-11" d="M706.46,79c-1.93,2-4.65,4.76-8,8-7.43,7.19-8.68,7.75-10,8-5.1,1-10-3-15-7a46.37,46.37,0,0,1-7-7,43.53,43.53,0,0,1,24-6A42.6,42.6,0,0,1,706.46,79Z" transform="translate(-595.44 -67.96)"/><ellipse class="cls-11" cx="91.52" cy="6.5" rx="7.5" ry="6.5"/><path class="cls-11" d="M647.65,106.54a.5.5,0,0,0,0,1A.5.5,0,0,0,647.65,106.54Z" transform="translate(-595.44 -67.96)"/><path class="cls-11" d="M650,101.64a.5.5,0,0,0,0,1A.5.5,0,0,0,650,101.64Z" transform="translate(-595.44 -67.96)"/><path class="cls-11" d="M653.41,95.29a.42.42,0,0,0-.26-.26.46.46,0,0,0-.2,0l-.13,0a.61.61,0,0,0-.22.13l-.08.1a.55.55,0,0,0-.07.25v.14a.41.41,0,0,0,0,.19.34.34,0,0,0,.1.16.42.42,0,0,0,.16.11.43.43,0,0,0,.19,0l.14,0a.42.42,0,0,0,.22-.13l.08-.1a.54.54,0,0,0,.06-.25v-.14A.33.33,0,0,0,653.41,95.29Z" transform="translate(-595.44 -67.96)"/><path class="cls-11" d="M656.62,90.36a.5.5,0,0,0,0,1A.5.5,0,0,0,656.62,90.36Z" transform="translate(-595.44 -67.96)"/><path class="cls-11" d="M662,85.56a.56.56,0,0,0-.13-.22l-.1-.08a.54.54,0,0,0-.25-.06h-.14a.31.31,0,0,0-.19,0,.34.34,0,0,0-.16.1.39.39,0,0,0-.1.16.35.35,0,0,0,0,.2l0,.13a.5.5,0,0,0,.13.22l.1.08a.55.55,0,0,0,.25.07h.14a.41.41,0,0,0,.19,0,.34.34,0,0,0,.16-.1.42.42,0,0,0,.11-.16.41.41,0,0,0,0-.19Z" transform="translate(-595.44 -67.96)"/><path class="cls-11" d="M665.73,82.21a.5.5,0,0,0,0,1A.5.5,0,0,0,665.73,82.21Z" transform="translate(-595.44 -67.96)"/><path class="cls-11" d="M650.69,104.4a.34.34,0,0,0-.1-.16.42.42,0,0,0-.16-.11.43.43,0,0,0-.19,0l-.14,0a.5.5,0,0,0-.22.13l-.08.1a.54.54,0,0,0-.06.25v.14a.31.31,0,0,0,0,.19.34.34,0,0,0,.1.16.39.39,0,0,0,.16.1.35.35,0,0,0,.2,0l.13,0a.5.5,0,0,0,.22-.13l.08-.1a.55.55,0,0,0,.07-.25v-.14A.41.41,0,0,0,650.69,104.4Z" transform="translate(-595.44 -67.96)"/><path class="cls-11" d="M653.77,99.61a.5.5,0,0,0,0,1A.5.5,0,0,0,653.77,99.61Z" transform="translate(-595.44 -67.96)"/><path class="cls-11" d="M656.9,93.9a.5.5,0,0,0,0,1A.5.5,0,0,0,656.9,93.9Z" transform="translate(-595.44 -67.96)"/><path class="cls-11" d="M661.52,89.68a.5.5,0,0,0,0,1A.5.5,0,0,0,661.52,89.68Z" transform="translate(-595.44 -67.96)"/><path class="cls-11" d="M666,86a.5.5,0,0,0,0,1A.5.5,0,0,0,666,86Z" transform="translate(-595.44 -67.96)"/><path class="cls-11" d="M658.31,98.15a.39.39,0,0,0-.11-.17l-.1-.07a.45.45,0,0,0-.25-.07l-.13,0a.51.51,0,0,0-.23.12l-.13.14a.39.39,0,0,0-.1.16.34.34,0,0,0,0,.19.35.35,0,0,0,0,.2.39.39,0,0,0,.1.16l.1.08a.54.54,0,0,0,.25.06h.14a.71.71,0,0,0,.22-.13l.13-.14a.36.36,0,0,0,.11-.16.47.47,0,0,0,0-.38Z" transform="translate(-595.44 -67.96)"/><path class="cls-11" d="M662.06,93.08a.5.5,0,0,0,0,1A.5.5,0,0,0,662.06,93.08Z" transform="translate(-595.44 -67.96)"/><path class="cls-11" d="M665.46,89.14a.5.5,0,0,0,0,1A.5.5,0,0,0,665.46,89.14Z" transform="translate(-595.44 -67.96)"/><path class="cls-11" d="M666.33,92.44a.31.31,0,0,0-.11-.16.36.36,0,0,0-.16-.11.41.41,0,0,0-.19,0l-.13,0a.45.45,0,0,0-.23.13l-.07.1a.43.43,0,0,0-.07.25v.27a.41.41,0,0,0,0,.19.37.37,0,0,0,.1.16.39.39,0,0,0,.17.11.41.41,0,0,0,.19,0l.13,0a.38.38,0,0,0,.22-.13l.08-.1a.43.43,0,0,0,.07-.25v-.27A.41.41,0,0,0,666.33,92.44Z" transform="translate(-595.44 -67.96)"/><path class="cls-11" d="M669.72,90.13a.37.37,0,0,0-.1-.17.44.44,0,0,0-.16-.1.41.41,0,0,0-.19,0l-.14,0a.53.53,0,0,0-.22.12l-.07.11a.43.43,0,0,0-.07.25v.13a.34.34,0,0,0,0,.2.42.42,0,0,0,.26.26.34.34,0,0,0,.2,0h.13a.61.61,0,0,0,.22-.13l.08-.1a.59.59,0,0,0,.07-.26v-.13A.32.32,0,0,0,669.72,90.13Z" transform="translate(-595.44 -67.96)"/><path class="cls-11" d="M671.85,87.92a.5.5,0,0,0,0,1A.5.5,0,0,0,671.85,87.92Z" transform="translate(-595.44 -67.96)"/><path class="cls-11" d="M669.59,86.32a.36.36,0,0,0-.11-.16.29.29,0,0,0-.16-.1.32.32,0,0,0-.19,0L669,86a.45.45,0,0,0-.22.13l-.08.1a.45.45,0,0,0-.07.25v.14a.41.41,0,0,0,0,.19.36.36,0,0,0,.11.16.46.46,0,0,0,.16.11.41.41,0,0,0,.19,0l.13,0a.45.45,0,0,0,.22-.13l.08-.1a.45.45,0,0,0,.07-.25v-.14A.41.41,0,0,0,669.59,86.32Z" transform="translate(-595.44 -67.96)"/><path class="cls-11" d="M667.77,83.7a.5.5,0,0,0,0,1A.5.5,0,0,0,667.77,83.7Z" transform="translate(-595.44 -67.96)"/><path class="cls-11" d="M663.83,84a.5.5,0,0,0,0,1A.5.5,0,0,0,663.83,84Z" transform="translate(-595.44 -67.96)"/><path class="cls-11" d="M659.26,88.09a.31.31,0,0,0-.11-.16.36.36,0,0,0-.16-.11.41.41,0,0,0-.19,0l-.13,0a.38.38,0,0,0-.22.13l-.08.1a.43.43,0,0,0-.07.25v.14a.43.43,0,0,0,0,.19.42.42,0,0,0,.11.16.34.34,0,0,0,.16.1.41.41,0,0,0,.19,0l.13,0a.54.54,0,0,0,.22-.13l.08-.1a.45.45,0,0,0,.07-.25v-.14A.41.41,0,0,0,659.26,88.09Z" transform="translate(-595.44 -67.96)"/><path class="cls-11" d="M659.62,91.45a.5.5,0,0,0,0,1A.5.5,0,0,0,659.62,91.45Z" transform="translate(-595.44 -67.96)"/><path class="cls-11" d="M659.62,94.44a.5.5,0,0,0,0,1A.5.5,0,0,0,659.62,94.44Z" transform="translate(-595.44 -67.96)"/><path class="cls-11" d="M655.72,96.38a.34.34,0,0,0-.1-.16.42.42,0,0,0-.16-.11.43.43,0,0,0-.19,0l-.14,0a.5.5,0,0,0-.22.13l-.08.1a.54.54,0,0,0-.06.25v.14a.31.31,0,0,0,0,.19.34.34,0,0,0,.1.16.39.39,0,0,0,.16.1.35.35,0,0,0,.2,0l.13,0a.5.5,0,0,0,.22-.13l.08-.1a.55.55,0,0,0,.07-.25v-.14A.41.41,0,0,0,655.72,96.38Z" transform="translate(-595.44 -67.96)"/><path class="cls-11" d="M655,92.71a.34.34,0,0,0-.1-.16.42.42,0,0,0-.16-.11.43.43,0,0,0-.19,0l-.14,0a.5.5,0,0,0-.22.13l-.08.1a.54.54,0,0,0-.06.25V93a.31.31,0,0,0,0,.19.34.34,0,0,0,.1.16.39.39,0,0,0,.16.1.35.35,0,0,0,.2.05l.13,0a.5.5,0,0,0,.22-.13l.08-.1a.55.55,0,0,0,.07-.25V92.9A.41.41,0,0,0,655,92.71Z" transform="translate(-595.44 -67.96)"/><path class="cls-11" d="M651.46,97.7a.5.5,0,0,0,0,1A.5.5,0,0,0,651.46,97.7Z" transform="translate(-595.44 -67.96)"/><path class="cls-11" d="M652.14,101.1a.5.5,0,0,0,0,1A.5.5,0,0,0,652.14,101.1Z" transform="translate(-595.44 -67.96)"/><path class="cls-11" d="M648.06,103.82a.5.5,0,0,0,0,1A.5.5,0,0,0,648.06,103.82Z" transform="translate(-595.44 -67.96)"/><path class="cls-11" d="M663.48,87.6a.42.42,0,0,0-.11-.16.34.34,0,0,0-.16-.1.31.31,0,0,0-.19,0h-.13a.54.54,0,0,0-.22.13l-.08.1a.48.48,0,0,0-.07.26v.14a.43.43,0,0,0,0,.19.42.42,0,0,0,.11.16.29.29,0,0,0,.16.1.41.41,0,0,0,.19,0l.13,0a.54.54,0,0,0,.22-.13l.08-.1a.45.45,0,0,0,.07-.25V87.8A.45.45,0,0,0,663.48,87.6Z" transform="translate(-595.44 -67.96)"/><path class="cls-11" d="M706.69,79.56a.5.5,0,0,0,0,1A.5.5,0,0,0,706.69,79.56Z" transform="translate(-595.44 -67.96)"/><path class="cls-11" d="M709.18,81.22a.5.5,0,0,0,0,1A.5.5,0,0,0,709.18,81.22Z" transform="translate(-595.44 -67.96)"/><path class="cls-11" d="M712.63,83.29a.5.5,0,0,0,0,1A.5.5,0,0,0,712.63,83.29Z" transform="translate(-595.44 -67.96)"/><path class="cls-11" d="M716.23,86.33a.5.5,0,0,0,0,1A.5.5,0,0,0,716.23,86.33Z" transform="translate(-595.44 -67.96)"/><path class="cls-11" d="M719,89.09a.5.5,0,0,0,0,1A.5.5,0,0,0,719,89.09Z" transform="translate(-595.44 -67.96)"/><path class="cls-11" d="M723.34,94.16a.45.45,0,0,0-.13-.22l-.1-.08a.55.55,0,0,0-.25-.07h-.14a.32.32,0,0,0-.19,0,.34.34,0,0,0-.16.1.36.36,0,0,0-.11.16.41.41,0,0,0,0,.19l0,.14a.46.46,0,0,0,.13.22l.1.07a.45.45,0,0,0,.25.07h.14a.41.41,0,0,0,.19,0,.44.44,0,0,0,.16-.1.42.42,0,0,0,.11-.16.45.45,0,0,0,0-.2Z" transform="translate(-595.44 -67.96)"/><path class="cls-11" d="M725.62,98.08a.5.5,0,0,0,0,1A.5.5,0,0,0,725.62,98.08Z" transform="translate(-595.44 -67.96)"/><path class="cls-11" d="M727.28,102a.5.5,0,0,0,0,1A.5.5,0,0,0,727.28,102Z" transform="translate(-595.44 -67.96)"/><path class="cls-11" d="M728.39,104.71a.5.5,0,0,0,0,1A.5.5,0,0,0,728.39,104.71Z" transform="translate(-595.44 -67.96)"/><path class="cls-11" d="M726.31,103.6a.5.5,0,0,0,0,1A.5.5,0,0,0,726.31,103.6Z" transform="translate(-595.44 -67.96)"/><path class="cls-11" d="M725.41,100.65a.53.53,0,0,0-.12-.22l-.11-.07a.43.43,0,0,0-.25-.07h-.14a.41.41,0,0,0-.19,0,.54.54,0,0,0-.16.1.37.37,0,0,0-.1.17.38.38,0,0,0-.05.19l0,.13a.45.45,0,0,0,.13.22l.1.08a.55.55,0,0,0,.25.07h.14a.32.32,0,0,0,.19-.05.37.37,0,0,0,.17-.1.44.44,0,0,0,.1-.16.41.41,0,0,0,0-.19Z" transform="translate(-595.44 -67.96)"/><path class="cls-11" d="M722,96.69a.5.5,0,0,0,0,1A.5.5,0,0,0,722,96.69Z" transform="translate(-595.44 -67.96)"/><path class="cls-11" d="M719.13,92.82a.5.5,0,0,0,0,1A.5.5,0,0,0,719.13,92.82Z" transform="translate(-595.44 -67.96)"/><path class="cls-11" d="M717.23,88.71a.42.42,0,0,0-.26-.26.32.32,0,0,0-.19,0l-.14,0a.56.56,0,0,0-.22.13l-.07.1a.45.45,0,0,0-.07.25V89a.41.41,0,0,0,0,.19.37.37,0,0,0,.1.16.39.39,0,0,0,.17.11.38.38,0,0,0,.19,0l.13,0a.38.38,0,0,0,.22-.13l.08-.1a.52.52,0,0,0,.07-.25V88.9A.32.32,0,0,0,717.23,88.71Z" transform="translate(-595.44 -67.96)"/><path class="cls-11" d="M713.18,85.78a.5.5,0,0,0,0,1A.5.5,0,0,0,713.18,85.78Z" transform="translate(-595.44 -67.96)"/><path class="cls-11" d="M711,83.6a.31.31,0,0,0-.11-.16.36.36,0,0,0-.16-.11.41.41,0,0,0-.19,0l-.13,0a.38.38,0,0,0-.22.13l-.08.1a.43.43,0,0,0-.07.25v.14a.41.41,0,0,0,0,.19.36.36,0,0,0,.11.16.29.29,0,0,0,.16.1.32.32,0,0,0,.19.05l.13,0a.45.45,0,0,0,.22-.13l.08-.1a.45.45,0,0,0,.07-.25v-.14A.41.41,0,0,0,711,83.6Z" transform="translate(-595.44 -67.96)"/><path class="cls-11" d="M707.59,82.41a.61.61,0,0,0-.13-.22l-.1-.08a.58.58,0,0,0-.26-.06H707a.34.34,0,0,0-.2,0,.42.42,0,0,0-.26.26.34.34,0,0,0,0,.2v.13a.61.61,0,0,0,.13.22l.1.08a.59.59,0,0,0,.26.07h.13a.46.46,0,0,0,.2,0,.42.42,0,0,0,.26-.26.33.33,0,0,0,0-.19Z" transform="translate(-595.44 -67.96)"/><path class="cls-11" d="M704.48,82.46a.5.5,0,0,0,0,1A.5.5,0,0,0,704.48,82.46Z" transform="translate(-595.44 -67.96)"/><path class="cls-11" d="M701.71,85.09a.5.5,0,0,0,0,1A.5.5,0,0,0,701.71,85.09Z" transform="translate(-595.44 -67.96)"/><path class="cls-11" d="M705.45,84.12a.5.5,0,0,0,0,1A.5.5,0,0,0,705.45,84.12Z" transform="translate(-595.44 -67.96)"/><path class="cls-11" d="M707.93,83.7a.5.5,0,0,0,0,1A.5.5,0,0,0,707.93,83.7Z" transform="translate(-595.44 -67.96)"/><path class="cls-11" d="M711.29,85.67a.34.34,0,0,0-.1-.16.39.39,0,0,0-.16-.1.34.34,0,0,0-.19,0l-.14,0a.5.5,0,0,0-.22.13l-.08.1a.54.54,0,0,0-.06.25V86a.31.31,0,0,0,0,.19.29.29,0,0,0,.1.16.42.42,0,0,0,.16.11.45.45,0,0,0,.2,0l.13,0a.42.42,0,0,0,.22-.13l.08-.1a.72.72,0,0,0,.07-.25v-.14A.41.41,0,0,0,711.29,85.67Z" transform="translate(-595.44 -67.96)"/><path class="cls-11" d="M708.25,86.36a.42.42,0,0,0-.26-.26.46.46,0,0,0-.2,0l-.13,0a.5.5,0,0,0-.22.13l-.08.1a.72.72,0,0,0-.07.25v.14a.41.41,0,0,0,.05.19.37.37,0,0,0,.1.17.54.54,0,0,0,.16.1.43.43,0,0,0,.19,0l.14,0a.48.48,0,0,0,.22-.12l.08-.11a.51.51,0,0,0,.06-.25v-.14A.31.31,0,0,0,708.25,86.36Z" transform="translate(-595.44 -67.96)"/><path class="cls-11" d="M711.66,87.57a.5.5,0,0,0,0,1A.5.5,0,0,0,711.66,87.57Z" transform="translate(-595.44 -67.96)"/><path class="cls-11" d="M714.7,87.71a.5.5,0,0,0,0,1A.5.5,0,0,0,714.7,87.71Z" transform="translate(-595.44 -67.96)"/><path class="cls-11" d="M714.43,89.65a.5.5,0,0,0,0,1A.5.5,0,0,0,714.43,89.65Z" transform="translate(-595.44 -67.96)"/><path class="cls-11" d="M716.92,90.89a.5.5,0,0,0,0,1A.5.5,0,0,0,716.92,90.89Z" transform="translate(-595.44 -67.96)"/><path class="cls-11" d="M720.79,91a.5.5,0,0,0,0,1A.5.5,0,0,0,720.79,91Z" transform="translate(-595.44 -67.96)"/><path class="cls-11" d="M710.07,88.36a.51.51,0,0,0-.12-.23l-.11-.07a.43.43,0,0,0-.25-.07h-.14a.41.41,0,0,0-.19,0,.54.54,0,0,0-.16.1.37.37,0,0,0-.1.17.41.41,0,0,0,0,.19l0,.13a.45.45,0,0,0,.13.22l.1.08a.45.45,0,0,0,.25.07h.14a.32.32,0,0,0,.19,0,.37.37,0,0,0,.17-.1.44.44,0,0,0,.1-.16.41.41,0,0,0,0-.19Z" transform="translate(-595.44 -67.96)"/><path class="cls-11" d="M698.54,88.13a.5.5,0,0,0,0,1A.5.5,0,0,0,698.54,88.13Z" transform="translate(-595.44 -67.96)"/><path class="cls-11" d="M701.85,87.71a.5.5,0,0,0,0,1A.5.5,0,0,0,701.85,87.71Z" transform="translate(-595.44 -67.96)"/><path class="cls-11" d="M705.63,86.64a.53.53,0,0,0-.27-.27.41.41,0,0,0-.19,0l-.13,0a.38.38,0,0,0-.22.13l-.08.1a.45.45,0,0,0-.07.25V87a.41.41,0,0,0,0,.19.36.36,0,0,0,.11.16.29.29,0,0,0,.16.1.32.32,0,0,0,.19,0l.13,0a.45.45,0,0,0,.22-.13l.08-.1a.45.45,0,0,0,.07-.25v-.14A.41.41,0,0,0,705.63,86.64Z" transform="translate(-595.44 -67.96)"/><path class="cls-11" d="M706.14,88.54a.5.5,0,0,0,0,1A.5.5,0,0,0,706.14,88.54Z" transform="translate(-595.44 -67.96)"/><path class="cls-11" d="M711.73,91a.42.42,0,0,0-.13-.22l-.1-.08a.55.55,0,0,0-.25-.07h-.14a.41.41,0,0,0-.19,0,.34.34,0,0,0-.16.1.42.42,0,0,0-.11.16.41.41,0,0,0,0,.19l0,.14a.5.5,0,0,0,.13.22l.1.08a.54.54,0,0,0,.25.06h.14a.31.31,0,0,0,.19,0,.34.34,0,0,0,.16-.1.42.42,0,0,0,.11-.16.45.45,0,0,0,0-.2Z" transform="translate(-595.44 -67.96)"/><path class="cls-11" d="M714.61,92.44a.54.54,0,0,0-.1-.16.37.37,0,0,0-.17-.1.38.38,0,0,0-.19-.05l-.13,0a.54.54,0,0,0-.22.13l-.08.1a.55.55,0,0,0-.07.25v.14a.3.3,0,0,0,.05.19.37.37,0,0,0,.1.17.44.44,0,0,0,.16.1.41.41,0,0,0,.19,0l.13,0a.51.51,0,0,0,.23-.12l.07-.11a.43.43,0,0,0,.07-.25v-.14A.43.43,0,0,0,714.61,92.44Z" transform="translate(-595.44 -67.96)"/><path class="cls-11" d="M717.19,93.79a.5.5,0,0,0,0,1A.5.5,0,0,0,717.19,93.79Z" transform="translate(-595.44 -67.96)"/><path class="cls-11" d="M719.82,95.73a.5.5,0,0,0,0,1A.5.5,0,0,0,719.82,95.73Z" transform="translate(-595.44 -67.96)"/><path class="cls-11" d="M724.24,96.14a.5.5,0,0,0,0,1A.5.5,0,0,0,724.24,96.14Z" transform="translate(-595.44 -67.96)"/><path class="cls-12" d="M684,107.46c1.54,8.89-5,16.55-12,17-7.26.46-14.83-6.72-14-16a34.48,34.48,0,0,1,26-1Z" transform="translate(-595.44 -67.96)"/><path class="cls-12" d="M689.36,107.67c-1.54,8.89,4.95,16.55,12,17,7.26.46,14.84-6.73,14-16a34.48,34.48,0,0,0-26-1Z" transform="translate(-595.44 -67.96)"/><path class="cls-12" d="M684,107.46a5,5,0,0,1,6,0" transform="translate(-595.44 -67.96)"/><path class="cls-12" d="M715,109.46q4.45-.46,9-1,4-.48,8-1" transform="translate(-595.44 -67.96)"/><path class="cls-12" d="M644,107.46q2.91.54,6,1,4.14.62,8,1" transform="translate(-595.44 -67.96)"/></g></g></svg>