<svg xmlns="http://www.w3.org/2000/svg" viewBox="0 0 144.84 207"><defs><style>.cls-1{fill:#f9d4b9;}.cls-2{fill:#e45d0f;}.cls-3{fill:#f18945;}.cls-4{fill:#5c2c10;}.cls-5,.cls-7{fill:none;stroke-miterlimit:10;}.cls-5{stroke:#c78a67;}.cls-6{fill:#1d1d1b;}.cls-7{stroke:#1d1d1b;stroke-width:2px;}.cls-8{fill:#e5241f;}.cls-9{fill:#846454;}.cls-10{fill:#a31a16;}.cls-11{fill:#fff;}</style></defs><g id="Lag_2" data-name="Lag 2"><g id="hoved"><path class="cls-1" d="M20,133c-1.66,9.17-4.26,22.9-8,40l10,11c1.82-4.32,4.41-10.85,7-19,2.94-9.2,2.59-10.11,5-18,5.26-17.18,8.94-19.44,11-32,1-5.79,2.66-16.14-2-19-3.16-1.94-7.9.42-9,1C25.13,101.74,23.52,113.6,20,133Z"/><path class="cls-2" d="M16,139.26C18.89,112.72,27.19,94.9,37,94c3.87-.35,6.94,2,7.81,2.68,9.5,7.31,9.23,27.5,0,50.32"/><path class="cls-1" d="M23,181c3,6.9-1.55,13.81-5,17-3.08,2.87-9.53,6.66-14,4-4.08-2.43-4-8.77-4-11,.07-6.51,3.39-17.21,11-18C16,172.49,21,176.35,23,181Z"/><path class="cls-1" d="M124.83,130.61c1.66,9.17,4.27,22.9,8,40l-10,11c-1.81-4.32-4.4-10.86-7-19-2.93-9.2-2.59-10.12-5-18-5.26-17.19-8.93-19.44-11-32-1-5.79-2.66-16.14,2-19,3.17-2,7.91.42,9,1C119.7,99.35,121.32,111.2,124.83,130.61Z"/><path class="cls-1" d="M121.83,178.61c-3,6.9,1.56,13.81,5,17,3.09,2.86,9.54,6.66,14,4,4.09-2.43,4-8.77,4-11-.06-6.51-3.39-17.22-11-18C128.88,170.1,123.83,174,121.83,178.61Z"/><path class="cls-2" d="M129,138.66c1.79-22.47-5.78-40.34-18-44.66-1.14-.4-7.54-2.66-12.34.43C90.08,100,90.5,120,100.9,145"/><path class="cls-1" d="M106,158a266.79,266.79,0,0,0,14,49H43a140,140,0,0,0,4-17c1.92-11.22,2-19.75,2-32,0-7.49-.17-17.35-1-29a83.76,83.76,0,0,0-6-18c-4.06-8.74-7.45-12.16-6-15,2.48-4.85,15.4,1.52,22-5,5.8-5.73,2.24-17,6-18,2.63-.7,4.36,4.77,9,5,5.75.29,8.49-7.84,12-7,4.28,1,1.06,13.24,8,19,6.3,5.23,15.08.28,18,5,1.53,2.47.07,5.38-3,14-2.74,7.71-4.66,14-5.84,18.19A265.84,265.84,0,0,0,106,158Z"/><path class="cls-3" d="M106,154a197.56,197.56,0,0,0,14,53H43a167.61,167.61,0,0,0,6-49c-.56-21.13-.92-31.69-7-44-3.27-6.64-9-15.45-6-19,1.24-1.45,3.22-1.17,10-2,5.11-.62,9.25-1.41,12-2a19.87,19.87,0,0,0,4,4,21.72,21.72,0,0,0,14,4,22.84,22.84,0,0,0,12-4,21.16,21.16,0,0,0,5-5,38.42,38.42,0,0,0,9,2,33.07,33.07,0,0,1,6,1,11.47,11.47,0,0,1,3,1c3.27,2.41-2.73,15.44-5,22C102.75,125.44,103.77,135,106,154Z"/><path class="cls-4" d="M54.28,75.23c0-.43-.05-.86-.1-1.28a.05.05,0,0,0,0,0,1.92,1.92,0,0,0-.2-1.28c0-.25-.08-.51-.13-.76a.51.51,0,0,0-.94-.09c-.06-.4-.13-.8-.23-1.2a.5.5,0,0,0-.73-.3l-.24.11,0,0A3.79,3.79,0,0,1,51,69.19a.5.5,0,0,0-1,.14s0,.08,0,.13a.46.46,0,0,0-.34-.13.41.41,0,0,0-.16,0l0-.11a.51.51,0,0,0-.17-.21,5.22,5.22,0,0,0-.14-.79.45.45,0,0,0-.52-.35l.05-.13c.21-.55-.56-.81-.88-.42a5.63,5.63,0,0,0-.86-.9,1.37,1.37,0,0,0-.4-.43l-.17-.42a.56.56,0,0,0-.83-.25.53.53,0,0,0-.14-.12c.14-.37.29-.74.46-1.11a.51.51,0,0,0-.18-.68.56.56,0,0,0-.29-.06.92.92,0,0,0-.18-.3c-.33-.33-.67-.21-1,.05a.45.45,0,0,0-.5,0c0-.16.07-.32.11-.48a.5.5,0,0,0-.91-.38,4.54,4.54,0,0,0-.81,3.48.46.46,0,0,0,.65.31,11.49,11.49,0,0,0-.22,1.56.47.47,0,0,0,.39.47l-.24.55a.51.51,0,0,0,.18.69.51.51,0,0,0,.68-.18l.23-.51a.55.55,0,0,0,.52-.17.44.44,0,0,0,.43,0,5,5,0,0,0,.9-.93,2.55,2.55,0,0,0,.39.65,4.34,4.34,0,0,0-.32,1.3c-.21.81-.4,1.62-.56,2.43a.5.5,0,0,0,1,.27l.45-1.13a.52.52,0,0,0,.2-.24c.11-.28.19-.57.3-.85a.5.5,0,0,0,.67.05l0,0a27.85,27.85,0,0,0,1.3,4.35.5.5,0,0,0,1-.27S50,74,50,74c.31.14.78,0,.73-.43a14,14,0,0,1-.09-1.83l0-.13.34,0,1.77,4.55c.19.49,1,.47,1-.14a2.83,2.83,0,0,1,0-.29A.5.5,0,0,0,54.28,75.23Z"/><path class="cls-4" d="M92.65,74c0-.08,0-.16-.05-.25a.33.33,0,0,0,.05-.22l-.08-1a.5.5,0,0,0-1-.14s0,0,0,0a.49.49,0,0,0-.24,0,.5.5,0,0,0-.3.23A.46.46,0,0,0,91,73l.13.32a.53.53,0,0,0,.29.45.58.58,0,0,0,.14,0,2.6,2.6,0,0,0,.13.36v0h0l0,.12a.5.5,0,0,0,.62.2A.5.5,0,0,0,92.65,74Z"/><path class="cls-4" d="M95,73.09h0a0,0,0,0,1,0,0,9.64,9.64,0,0,0-.25-1.52.54.54,0,0,0-.12-.42,10.62,10.62,0,0,0-.4-1.07.5.5,0,1,0-.86.5,7.65,7.65,0,0,1,.31.92.5.5,0,0,0-.66.74,9.74,9.74,0,0,1,.84,1,6.94,6.94,0,0,0,.57,1.54.51.51,0,0,0,.69.18C95.77,74.4,95.33,73.65,95,73.09Z"/><path class="cls-4" d="M98.31,72.5c-.2-1.37-.41-2.75-.62-4.12a.5.5,0,0,0-1,.22.41.41,0,0,0-.25.3.5.5,0,0,0-.42.48v0l-.23-.16a.5.5,0,0,0-.71.63.48.48,0,0,0-.15.79l1.32,1.24c.32.55.64,1.1,1,1.65a.51.51,0,0,0,.94-.25c0-.1,0-.21,0-.31A.5.5,0,0,0,98.31,72.5Z"/><path class="cls-4" d="M104.6,64.14a2.1,2.1,0,0,0,0-1.29,3.45,3.45,0,0,1,.07-1.5.47.47,0,0,0-.3-.57c-.54-.41-1.13.51-1.4.9-.39.56-.75,1.14-1.1,1.74,0-.09,0-.17,0-.25,0-.64-1-.64-1,0s-.37,1.09-.47,1.66a1.84,1.84,0,0,0,0,.7.49.49,0,0,0-.32.9,1.77,1.77,0,0,0-.12.17c-.14-.52-.25-1-.35-1.56s-1-.41-1,.13,0,.83,0,1.24h0a.48.48,0,0,0-.54-.11.51.51,0,0,0-.31.46,1.12,1.12,0,0,0,.56,1,.56.56,0,0,0-.3.08.59.59,0,0,0-.26.68.51.51,0,0,0,.76.27c.15,0,.29.06.43.09a4,4,0,0,0,1.13,1l.14,0c.13.1.25.21.39.31.36.26.84-.18.73-.57a2.26,2.26,0,0,0-.62-1,1.6,1.6,0,0,0-.1-.31c-.11-.25-.23-.5-.34-.74a.75.75,0,0,0,.48-.23,1.07,1.07,0,0,0,.14-.16,3.63,3.63,0,0,0,.79.32l.25.4.73,1a.5.5,0,0,0,.91-.38l-.15-.72a.4.4,0,0,0,.11-.3,6,6,0,0,0-.33-1.69A5.59,5.59,0,0,0,104.6,64.14Z"/><path class="cls-4" d="M105.65,66.6a14.17,14.17,0,0,1-.11-6.25c.13-.63-.84-.9-1-.27a15.22,15.22,0,0,0-.23,4.61l-.14-.08c-.53-.16-1,.34-1.12.8-.33,1.19.66,2.76.2,3.91a8.58,8.58,0,0,0-2.47-2.48.51.51,0,0,0-.73.57c.29.94.59,1.89.89,2.83a7.4,7.4,0,0,1-2.36-1.77c-.26-.29-.91-.08-.85.36.19,1.45.3,2.91.36,4.37L95.38,71a.51.51,0,0,0-.84.49,8.79,8.79,0,0,1,.33,3.3.41.41,0,0,1,0,.11.3.3,0,0,0-.13-.12c-.16-.22-.3-.45-.44-.68a17.17,17.17,0,0,1-.79-1.54c-.23-.51-.88-.17-.93.26a10.14,10.14,0,0,1-.28,1.33,3.2,3.2,0,0,1-1.05-2.23c0-.64-1-.65-1,0a4.25,4.25,0,0,0,2.06,3.5.51.51,0,0,0,.74-.3,7,7,0,0,0,.21-.75c.58,1.08,1.42,2.24,2.26,1.53.52-.43.41-1.52.4-2.12a11.45,11.45,0,0,0-.11-1.15l2.52,2.07a.5.5,0,0,0,.85-.36c0-1.4-.13-2.8-.28-4.19a8.49,8.49,0,0,0,2.73,1.47.5.5,0,0,0,.62-.61c-.24-.74-.46-1.47-.69-2.21a15.54,15.54,0,0,1,1.31,1.69.5.5,0,0,0,.78.1,2.71,2.71,0,0,0,.73-2.14c0-.24-.31-1.79-.35-2.48l.72,1.07A.5.5,0,0,0,105.65,66.6Z"/><path class="cls-4" d="M54.92,72a3.57,3.57,0,0,0-.11-.64.57.57,0,0,0-.23-.3.5.5,0,0,0-.74.57,1.36,1.36,0,0,1,.06.29,1.94,1.94,0,0,1,0,.59l0-.12a.45.45,0,0,0,0,.2s0,.05,0,.08a.3.3,0,0,0,0,.1,20.26,20.26,0,0,1-.25,3,15,15,0,0,1-2-4.19c-.12-.38-.73-.53-.92-.12a15,15,0,0,0-1,3.09A15,15,0,0,1,48.08,70c-.08-.45-.69-.44-.91-.12a19.34,19.34,0,0,1-1.74,2.18c.25-1.45.47-2.9.63-4.37,0-.44-.57-.64-.85-.35a15.66,15.66,0,0,1-2.42,2,11.63,11.63,0,0,0,.51-3.85.5.5,0,0,0-.85-.35c-.09.09-.19.17-.27.26a8.22,8.22,0,0,0,.52-3.38c0-.64-1-.64-1,0a7.36,7.36,0,0,1-1.57,5c-.33.41.09,1.1.61.78a10.82,10.82,0,0,0,1.54-1.15,10.73,10.73,0,0,1-.87,3.6c-.19.43.21,1,.68.68a16.66,16.66,0,0,0,2.8-2c-.2,1.49-.43,3-.72,4.44A.51.51,0,0,0,45,74a22.12,22.12,0,0,0,2.35-2.67,15.6,15.6,0,0,0,2.17,4.92.5.5,0,0,0,.93-.25,13.28,13.28,0,0,1,.67-2.85,16.44,16.44,0,0,0,2.5,4.28.51.51,0,0,0,.84-.22,22.6,22.6,0,0,0,.45-4.41.66.66,0,0,0,0-.15A4.22,4.22,0,0,0,54.92,72Z"/><path class="cls-1" d="M108.5,19.4c1.87,4.21,5.63,14.29,3,26.23C107.89,61.94,93,78.48,73,78.4c-18.77-.06-33-14.65-37.5-29.75-4.07-13.57.35-25.37,2-29.25Z"/><path class="cls-5" d="M82.06,43c.92,2.37-2.51,8-8,8s-8.91-5.63-8-8"/><ellipse class="cls-6" cx="58.5" cy="33.4" rx="3" ry="9"/><ellipse class="cls-6" cx="89" cy="32.9" rx="3" ry="9"/><path class="cls-7" d="M98,50.9a26.48,26.48,0,0,1-48,4"/><path class="cls-4" d="M71.51,55.3c-.45,1-.91,2-1.36,3-.09-.34-.18-.67-.26-1a.51.51,0,0,0-.74-.3,7.22,7.22,0,0,0-.77.56,5,5,0,0,0,.06-.54,1,1,0,0,0-.85-1.08,3.19,3.19,0,0,0-1.82.6l-1.54.8a5.28,5.28,0,0,1,.5-1.24.51.51,0,0,0-.43-.76,4.31,4.31,0,0,0-2.22.7c.06-.54.13-1.08.19-1.62,0-.36-.35-.54-.63-.49a8.37,8.37,0,0,0-2.62.93c.15-.52.31-1,.46-1.56a.5.5,0,0,0-.73-.56l-2,.9c0-.48.32-1.08.3-1.53a1.27,1.27,0,0,0-.79-1.22,1.25,1.25,0,0,0-1.2.27,3.71,3.71,0,0,0-.37.4,4.9,4.9,0,0,0-.15-1.86.5.5,0,0,0-.73-.29,7.09,7.09,0,0,0-1.43,1.24,2.39,2.39,0,0,0-.71-.88,4.74,4.74,0,0,0-2.86-.68.5.5,0,0,0,0,1c.94,0,3.09.16,2.77,1.64a.51.51,0,0,0,.92.38,6.18,6.18,0,0,1,1.21-1.34,3.91,3.91,0,0,1-.28,1.74.5.5,0,0,0,.49.63A1.74,1.74,0,0,0,55,52.61c.21-.18.59-.78.86-.81.46-.06.09,1,0,1.17A1.89,1.89,0,0,0,56,54.55a.53.53,0,0,0,.69.18l1.54-.7c-.18.6-.35,1.2-.53,1.79-.12.39.37.84.73.57A7.94,7.94,0,0,1,61.19,55c-.08.74-.17,1.48-.26,2.21a.5.5,0,0,0,.85.35,3.36,3.36,0,0,1,1.68-1.14,5.82,5.82,0,0,0-.37,1.76.5.5,0,0,0,.75.43c1-.51,2-1.06,3-1.55.09,0,.51-.29.62-.2s-.09.53-.11.59c-.09.51-.19,1-.28,1.54a.5.5,0,0,0,.91.39,5.23,5.23,0,0,1,1.14-1.16l.42,1.63a.5.5,0,0,0,.91.12l1.94-4.19C72.65,55.22,71.78,54.71,71.51,55.3Z"/><path class="cls-4" d="M97.14,48.08a3.36,3.36,0,0,1-1.88-.27.51.51,0,0,0-.74.29,11.79,11.79,0,0,1-.47,1.64l-.74-.42a.51.51,0,0,0-.74.57,5.39,5.39,0,0,1,.08,1.65,3.49,3.49,0,0,0-1.36-.29.51.51,0,0,0-.44.75,3.59,3.59,0,0,1,.25.81,9.79,9.79,0,0,1-1.75-.93c-.4-.28-.79.18-.73.56a10.21,10.21,0,0,1,0,2.59l-3.08-2c-.35-.22-.89.15-.73.56a12.67,12.67,0,0,1,.65,2.47l-1-.86c-.42-.38-1-1.06-1.61-.93s-.71.73-.8,1.21l-.33,1.95a12.44,12.44,0,0,1-2.29-2.18c-.26-.31-.72-.09-.84.22a15.76,15.76,0,0,0-.58,2.22l-1.14-1.53c-.38-.51-1.24,0-.86.5L78,59.26A.5.5,0,0,0,78.9,59a12.27,12.27,0,0,1,.46-2.34,13.71,13.71,0,0,0,2.52,2.1.5.5,0,0,0,.74-.3c.09-.56.19-1.13.29-1.7a5.45,5.45,0,0,1,.25-1.39,9.72,9.72,0,0,1,1.31,1.15l1.32,1.16a.51.51,0,0,0,.85-.36,13.16,13.16,0,0,0-.41-2.66L88.8,56.3a.51.51,0,0,0,.74-.3,11.63,11.63,0,0,0,.15-2.76,10,10,0,0,0,1.83.81.5.5,0,0,0,.63-.48A4.41,4.41,0,0,0,92,52.36a2.54,2.54,0,0,1,.77.39.5.5,0,0,0,.73-.3,7.22,7.22,0,0,0,.15-1.79l.41.23a.5.5,0,0,0,.73-.3,12.68,12.68,0,0,0,.55-1.68,4.15,4.15,0,0,0,1.79.17C97.77,49,97.78,48,97.14,48.08Z"/><path class="cls-1" d="M36,48c-3.87,0-7-3.83-7-8.55s3.13-8.55,7-8.55"/><path class="cls-1" d="M111.47,45.32c3.31,0,6-3.81,6-8.5s-2.69-8.5-6-8.5"/><path class="cls-4" d="M84.39,19.21c-.26-.58-1.12-.07-.86.51.09.19.14.38.21.57h-.08a1.25,1.25,0,0,0-.42-.08.5.5,0,0,0-.78-.11l0,0c0-.12-.08-.23-.13-.35-.17-.41-.84-.53-1,0a3.42,3.42,0,0,0,0,1.19.5.5,0,0,0-.19.1l-.06-.46V19.14c0-.65-1-.63-1,0l0,.69a.51.51,0,0,0-.67.46c0,.33,0,.65,0,1L79,19.56c-.09-.52-.94-.43-1,.05a.52.52,0,0,0-.83,0,1.49,1.49,0,0,0-.47-1c-.68-.52-1.45.2-1.87.76-.07-.07-.13-.15-.21-.22a.48.48,0,0,0-.81.25.52.52,0,0,0-.72.3.59.59,0,0,0-.13.31c-.11-.26-.23-.52-.33-.79-.23-.59-1.17-.35-1,.27l.23.69a.63.63,0,0,0-.19,0,9,9,0,0,0-.57-.94c-.31-.42-1.11-.19-.91.39.09.27.18.55.28.83l-.07-.11a.54.54,0,0,0-.46-.23.82.82,0,0,0-1.27-.2,1.47,1.47,0,0,0-.34.51,4.89,4.89,0,0,0-.45-.46.5.5,0,0,0-.84.38.61.61,0,0,0-.36.15.25.25,0,0,0-.12,0h0a.42.42,0,0,0-.29.14.48.48,0,0,0-.78-.24s0,0,0-.06a.39.39,0,0,0-.16-.1.38.38,0,0,0-.1,0c-.11-.57-1-.56-1,.06,0,.34.07.67.1,1l-.24-.74c-.21-.6-1.17-.34-1,.27q.93,2.76,1.84,5.52a.5.5,0,0,0,1-.13,5.63,5.63,0,0,1,.79-2.4c1,2.36,1.91,4.75,2.68,7.19a.5.5,0,0,0,1-.27,15,15,0,0,1,0-4.23c1,2.57,2.14,5.11,3.33,7.62.22.48.9.2.93-.25L75,27.4l2.31,3a.5.5,0,0,0,.91-.38,16.63,16.63,0,0,1-.15-3.66,13,13,0,0,0,2.06,2.94A.5.5,0,0,0,81,29c.15-1.41.22-2.82.25-4.24l1.61,1.49a.5.5,0,0,0,.85-.35c0-1,0-1.93.08-2.9a5.74,5.74,0,0,1,.58.79.5.5,0,0,0,.93-.25A9.59,9.59,0,0,0,84.39,19.21Zm-8.23.34,0,0a.45.45,0,0,0-.08.17,9.7,9.7,0,0,0-.23,1.07c-.11-.19-.23-.39-.36-.57C75.7,20,76,19.51,76.16,19.55Z"/><rect class="cls-8" x="34" y="12.08" width="78" height="8.92" rx="3.91"/><path class="cls-6" d="M36.93,53.65a1.14,1.14,0,0,0-.63-.13c-.23,0-.33,0-.53.07-.5,0-1,0-1.5.06a7.48,7.48,0,0,1,0-2.75,1,1,0,0,0,.26-.15A1.57,1.57,0,0,0,35,49.63a1.85,1.85,0,0,0-.11-.69,1.25,1.25,0,0,0,.26-.6.38.38,0,0,0-.37-.37.36.36,0,0,0-.35.29,1.35,1.35,0,0,0-.63-.32,2.46,2.46,0,0,0-.28,0,1.29,1.29,0,0,1-.31-1,.55.55,0,0,0-.13-.47v0c0-.14.07-.29.11-.44l0-.13a3,3,0,0,1,1.43-1.72.5.5,0,0,0,.2-.62.5.5,0,0,0-.59-.29c-1.22.17-1.74,1.35-2,2.43a2,2,0,0,0-.07.26s0,0,0,.06a4.1,4.1,0,0,0-.16,2,1.42,1.42,0,0,0,.3.52,1.26,1.26,0,0,0-.3.5,1.22,1.22,0,0,0,0,.6.7.7,0,0,0,0,.4,1.33,1.33,0,0,0,.46.54l.08,0,.08.09.17.08a19.25,19.25,0,0,1,.5,3.1l-.73-.08a5.82,5.82,0,0,0-1.9-.15c-.35-.08-.79-.25-1.07,0a1.12,1.12,0,0,0-.06,1.11.39.39,0,0,0,.45.26.32.32,0,0,0,.19.05,16.21,16.21,0,0,1,3.19-.09c0,1,.05,1.91,0,2.87a10.15,10.15,0,0,1-.35,1.89c-.39,1.24-1,2.4-1.49,3.61-.18.47-.52,1.1-.28,1.6s.71,1,1,1.57a12.47,12.47,0,0,1,1.31,3.67.37.37,0,0,0,.71,0,25.36,25.36,0,0,1,1.09-4,10.33,10.33,0,0,0,.65-1.84,3.62,3.62,0,0,0-.34-1.71A26.76,26.76,0,0,1,34.39,55,5.9,5.9,0,0,0,36,55a.45.45,0,0,0,.26.09,3.55,3.55,0,0,0,.65,0,.49.49,0,0,0,.25-.18.32.32,0,0,0,.13-.15A.8.8,0,0,0,36.93,53.65Zm-3-4.06h0l-.2.18s-.07.06,0,0l-.05,0-.14.09-.19,0h0a.32.32,0,0,0-.08-.12l0,0-.06-.11a.36.36,0,0,1,0-.1.33.33,0,0,1,0-.14.2.2,0,0,1,0-.11l0,0a1.44,1.44,0,0,0,.81.23Z"/><path class="cls-9" d="M101.34,21.71a.53.53,0,0,0-.27-.27.41.41,0,0,0-.19,0l-.13,0a.38.38,0,0,0-.22.13l-.08.1a.45.45,0,0,0-.07.25V22a.41.41,0,0,0,0,.19.36.36,0,0,0,.11.16.31.31,0,0,0,.16.11.41.41,0,0,0,.19,0l.13,0a.45.45,0,0,0,.22-.13l.08-.1a.45.45,0,0,0,.07-.25V21.9A.41.41,0,0,0,101.34,21.71Z"/><path class="cls-9" d="M104.66,21.71a.44.44,0,0,0-.1-.16.39.39,0,0,0-.17-.11.41.41,0,0,0-.19,0l-.13,0a.38.38,0,0,0-.22.13l-.08.1a.45.45,0,0,0-.07.25V22a.41.41,0,0,0,0,.19.53.53,0,0,0,.27.27.41.41,0,0,0,.19,0l.13,0a.53.53,0,0,0,.23-.13l.07-.1a.45.45,0,0,0,.07-.25V21.9A.41.41,0,0,0,104.66,21.71Z"/><path class="cls-9" d="M107,23.09a.42.42,0,0,0-.26-.26.46.46,0,0,0-.2,0l-.13,0a.61.61,0,0,0-.22.13l-.08.1a.72.72,0,0,0-.07.25v.14a.46.46,0,0,0,0,.2.42.42,0,0,0,.26.26.33.33,0,0,0,.19,0l.14,0a.48.48,0,0,0,.22-.12l.08-.1a.58.58,0,0,0,.06-.26v-.14A.33.33,0,0,0,107,23.09Z"/><path class="cls-9" d="M108.12,26.14A.44.44,0,0,0,108,26a.39.39,0,0,0-.17-.11.38.38,0,0,0-.19,0l-.13,0a.38.38,0,0,0-.22.13l-.08.1a.55.55,0,0,0-.07.25v.14a.32.32,0,0,0,0,.19.34.34,0,0,0,.1.16.36.36,0,0,0,.16.11.41.41,0,0,0,.19,0l.14,0a.56.56,0,0,0,.22-.13l.07-.1a.45.45,0,0,0,.07-.25v-.14A.41.41,0,0,0,108.12,26.14Z"/><path class="cls-9" d="M108.49,28.18a.5.5,0,0,0,0,1A.5.5,0,0,0,108.49,28.18Z"/><path class="cls-9" d="M109.18,31.78a.5.5,0,0,0,0,1A.5.5,0,0,0,109.18,31.78Z"/><path class="cls-9" d="M106.83,29.29a.5.5,0,0,0,0,1A.5.5,0,0,0,106.83,29.29Z"/><path class="cls-9" d="M106.9,27.44a.61.61,0,0,0-.13-.22l-.1-.08a.54.54,0,0,0-.25-.06h-.14a.3.3,0,0,0-.19,0,.37.37,0,0,0-.17.1.54.54,0,0,0-.1.16.45.45,0,0,0,0,.2l0,.13a.48.48,0,0,0,.12.22L106,28a.52.52,0,0,0,.25.07h.14a.41.41,0,0,0,.19,0,.42.42,0,0,0,.26-.26.45.45,0,0,0,0-.19Z"/><path class="cls-9" d="M105.79,25a.5.5,0,0,0-.13-.22l-.1-.08a.55.55,0,0,0-.25-.07h-.14a.41.41,0,0,0-.19.05.34.34,0,0,0-.16.1.42.42,0,0,0-.11.16.43.43,0,0,0,0,.19l0,.14a.5.5,0,0,0,.13.22l.1.08a.54.54,0,0,0,.25.06h.14a.31.31,0,0,0,.19,0,.34.34,0,0,0,.16-.1.42.42,0,0,0,.11-.16.45.45,0,0,0,0-.2Z"/><path class="cls-9" d="M103.51,23.06a.5.5,0,0,0,0,1A.5.5,0,0,0,103.51,23.06Z"/><path class="cls-9" d="M40,22a.5.5,0,0,0,0,1A.5.5,0,0,0,40,22Z"/><path class="cls-9" d="M38.45,24.31a.5.5,0,0,0,0,1A.5.5,0,0,0,38.45,24.31Z"/><path class="cls-9" d="M37.62,28.18a.5.5,0,0,0,0,1A.5.5,0,0,0,37.62,28.18Z"/><path class="cls-9" d="M37.2,31a.5.5,0,0,0,0,1A.5.5,0,0,0,37.2,31Z"/><path class="cls-9" d="M40.18,26.47a.71.71,0,0,0-.13-.22l-.1-.08a.58.58,0,0,0-.26-.06h-.13a.34.34,0,0,0-.2,0,.42.42,0,0,0-.26.26.34.34,0,0,0,0,.2v.13a.61.61,0,0,0,.13.22l.1.08a.59.59,0,0,0,.26.07h.13a.46.46,0,0,0,.2-.05.42.42,0,0,0,.26-.26.31.31,0,0,0,0-.19Z"/><path class="cls-9" d="M41.63,22.37a.5.5,0,0,0,0,1A.5.5,0,0,0,41.63,22.37Z"/><path class="cls-9" d="M44,21.4a.5.5,0,0,0,0,1A.5.5,0,0,0,44,21.4Z"/><path class="cls-9" d="M41.49,21a.5.5,0,0,0,0,1A.5.5,0,0,0,41.49,21Z"/><path class="cls-9" d="M46.48,21.26a.5.5,0,0,0,0,1A.5.5,0,0,0,46.48,21.26Z"/><path class="cls-9" d="M41,24.4a.54.54,0,0,0-.13-.22l-.1-.08a.45.45,0,0,0-.25-.07h-.14a.45.45,0,0,0-.2,0,.42.42,0,0,0-.16.11.34.34,0,0,0-.1.16.31.31,0,0,0,0,.19v.13a.54.54,0,0,0,.13.22l.1.08a.48.48,0,0,0,.26.07h.14a.43.43,0,0,0,.19,0,.42.42,0,0,0,.16-.11.34.34,0,0,0,.1-.16.41.41,0,0,0,.05-.19Z"/><path class="cls-9" d="M36.69,34.17a.37.37,0,0,0-.1-.17.54.54,0,0,0-.16-.1.45.45,0,0,0-.2,0l-.13,0a.48.48,0,0,0-.22.12l-.08.11a.52.52,0,0,0-.07.25v.14a.41.41,0,0,0,.05.19.34.34,0,0,0,.1.16A.39.39,0,0,0,36,35a.34.34,0,0,0,.19,0l.14,0a.5.5,0,0,0,.22-.13l.08-.1a.54.54,0,0,0,.06-.25v-.14A.31.31,0,0,0,36.69,34.17Z"/><path class="cls-9" d="M110.15,33.44a.5.5,0,0,0,0,1A.5.5,0,0,0,110.15,33.44Z"/><path class="cls-8" d="M104.5,12h-63a47.34,47.34,0,0,1,63,0Z"/><path class="cls-9" d="M38.19,22a.5.5,0,0,0,0,1A.5.5,0,0,0,38.19,22Z"/><path class="cls-9" d="M37.1,25.35a.5.5,0,0,0,0,1A.5.5,0,0,0,37.1,25.35Z"/><path class="cls-9" d="M36.25,29.11a.5.5,0,0,0,0,1A.5.5,0,0,0,36.25,29.11Z"/><path class="cls-9" d="M35.76,31.77a.5.5,0,0,0,0,1A.5.5,0,0,0,35.76,31.77Z"/><path class="cls-9" d="M107.35,21.23a.5.5,0,0,0,0,1A.5.5,0,0,0,107.35,21.23Z"/><path class="cls-9" d="M108.2,24a.5.5,0,0,0,0,1A.5.5,0,0,0,108.2,24Z"/><path class="cls-9" d="M109.17,26.32a.5.5,0,0,0,0,1A.5.5,0,0,0,109.17,26.32Z"/><path class="cls-9" d="M109.9,29.59a.5.5,0,0,0,0,1A.5.5,0,0,0,109.9,29.59Z"/><path class="cls-9" d="M110.5,31.29a.5.5,0,0,0,0,1A.5.5,0,0,0,110.5,31.29Z"/><path class="cls-10" d="M39.23,19.55A3.68,3.68,0,0,1,38,17a4.8,4.8,0,0,1,.2-1.64,5.52,5.52,0,0,1,.29-.77,1.59,1.59,0,0,1,.18-.34c.08-.09,0-.08.1-.06a.5.5,0,0,0,0-1c-.75-.09-1.11.77-1.33,1.33A5.86,5.86,0,0,0,37,16.66a4.75,4.75,0,0,0,1.53,3.6C39,20.68,39.71,20,39.23,19.55Z"/><path class="cls-10" d="M43.09,19.5a3.7,3.7,0,0,1-1.23-2.56,4.74,4.74,0,0,1,.2-1.63,5.52,5.52,0,0,1,.29-.77,1.7,1.7,0,0,1,.19-.35c.07-.09,0-.07.09-.06a.5.5,0,0,0,.5-.5.51.51,0,0,0-.5-.5c-.74-.09-1.1.77-1.33,1.33a5.86,5.86,0,0,0-.44,2.15,4.72,4.72,0,0,0,1.52,3.59C42.86,20.63,43.57,19.92,43.09,19.5Z"/><path class="cls-10" d="M47.09,19.5a3.7,3.7,0,0,1-1.23-2.56,4.74,4.74,0,0,1,.2-1.63,5.52,5.52,0,0,1,.29-.77,1.7,1.7,0,0,1,.19-.35c.07-.09,0-.07.09-.06a.5.5,0,0,0,.5-.5.51.51,0,0,0-.5-.5c-.74-.09-1.1.77-1.33,1.33a5.86,5.86,0,0,0-.44,2.15,4.72,4.72,0,0,0,1.52,3.59C46.86,20.63,47.57,19.92,47.09,19.5Z"/><path class="cls-10" d="M51.09,19.5a3.7,3.7,0,0,1-1.23-2.56,4.74,4.74,0,0,1,.2-1.63,5.52,5.52,0,0,1,.29-.77,1.7,1.7,0,0,1,.19-.35c.07-.09,0-.07.09-.06a.5.5,0,0,0,.5-.5.51.51,0,0,0-.5-.5c-.74-.09-1.1.77-1.33,1.33a5.86,5.86,0,0,0-.44,2.15,4.72,4.72,0,0,0,1.52,3.59C50.86,20.63,51.57,19.92,51.09,19.5Z"/><path class="cls-10" d="M55.09,19.5a3.7,3.7,0,0,1-1.23-2.56,4.74,4.74,0,0,1,.2-1.63,5.52,5.52,0,0,1,.29-.77,1.7,1.7,0,0,1,.19-.35c.07-.09,0-.07.09-.06a.5.5,0,0,0,.5-.5.51.51,0,0,0-.5-.5c-.74-.09-1.1.77-1.33,1.33a5.86,5.86,0,0,0-.44,2.15,4.72,4.72,0,0,0,1.52,3.59C54.86,20.63,55.57,19.92,55.09,19.5Z"/><path class="cls-10" d="M59.09,19.5a3.7,3.7,0,0,1-1.23-2.56,4.74,4.74,0,0,1,.2-1.63,5.52,5.52,0,0,1,.29-.77,1.7,1.7,0,0,1,.19-.35c.07-.09,0-.07.09-.06a.5.5,0,0,0,.5-.5.51.51,0,0,0-.5-.5c-.74-.09-1.1.77-1.33,1.33a5.86,5.86,0,0,0-.44,2.15,4.72,4.72,0,0,0,1.52,3.59C58.86,20.63,59.57,19.92,59.09,19.5Z"/><path class="cls-10" d="M64.09,19.5a3.7,3.7,0,0,1-1.23-2.56,4.74,4.74,0,0,1,.2-1.63,5.52,5.52,0,0,1,.29-.77,1.7,1.7,0,0,1,.19-.35c.07-.09,0-.07.09-.06a.5.5,0,0,0,.5-.5.51.51,0,0,0-.5-.5c-.74-.09-1.1.77-1.33,1.33a5.86,5.86,0,0,0-.44,2.15,4.72,4.72,0,0,0,1.52,3.59C63.86,20.63,64.57,19.92,64.09,19.5Z"/><path class="cls-10" d="M69.1,19.5A3.79,3.79,0,0,1,68,16.94a5.27,5.27,0,0,1,.18-1.63,7.08,7.08,0,0,1,.28-.77,2.26,2.26,0,0,1,.17-.35c.07-.09,0-.07.09-.06s.47-.25.47-.5a.5.5,0,0,0-.47-.5c-.7-.09-1,.77-1.25,1.33A6.28,6.28,0,0,0,67,16.61a4.87,4.87,0,0,0,1.44,3.59C68.89,20.63,69.55,19.92,69.1,19.5Z"/><path class="cls-10" d="M75.12,13.93a.5.5,0,0,0-1,0,20.89,20.89,0,0,0,0,5.3.53.53,0,0,0,.5.5c.25,0,.54-.23.5-.5A20.89,20.89,0,0,1,75.12,13.93Z"/><path class="cls-10" d="M79,19.5a3.69,3.69,0,0,0,1.22-2.56,4.73,4.73,0,0,0-.19-1.63,7.15,7.15,0,0,0-.29-.77,2.37,2.37,0,0,0-.19-.35c-.07-.09,0-.07-.1-.06a.5.5,0,0,1-.5-.5.51.51,0,0,1,.5-.5c.75-.09,1.11.77,1.34,1.33a6.07,6.07,0,0,1,.44,2.15,4.69,4.69,0,0,1-1.53,3.59C79.24,20.63,78.53,19.92,79,19.5Z"/><path class="cls-10" d="M83.32,19.5a3.7,3.7,0,0,0,1.23-2.56,4.74,4.74,0,0,0-.2-1.63,5.52,5.52,0,0,0-.29-.77,1.66,1.66,0,0,0-.18-.35c-.08-.09,0-.07-.1-.06a.5.5,0,0,1-.5-.5.51.51,0,0,1,.5-.5c.75-.09,1.11.77,1.33,1.33a5.87,5.87,0,0,1,.45,2.15A4.73,4.73,0,0,1,84,20.2C83.55,20.63,82.84,19.92,83.32,19.5Z"/><path class="cls-10" d="M88.32,19.5a3.7,3.7,0,0,0,1.23-2.56,4.74,4.74,0,0,0-.2-1.63,5.52,5.52,0,0,0-.29-.77,1.66,1.66,0,0,0-.18-.35c-.08-.09,0-.07-.1-.06a.5.5,0,0,1-.5-.5.51.51,0,0,1,.5-.5c.75-.09,1.11.77,1.33,1.33a5.87,5.87,0,0,1,.45,2.15A4.73,4.73,0,0,1,89,20.2C88.55,20.63,87.84,19.92,88.32,19.5Z"/><path class="cls-10" d="M93.32,19.5a3.7,3.7,0,0,0,1.23-2.56,4.74,4.74,0,0,0-.2-1.63,5.52,5.52,0,0,0-.29-.77,1.66,1.66,0,0,0-.18-.35c-.08-.09,0-.07-.1-.06a.5.5,0,0,1-.5-.5.51.51,0,0,1,.5-.5c.75-.09,1.11.77,1.33,1.33a5.87,5.87,0,0,1,.45,2.15A4.73,4.73,0,0,1,94,20.2C93.55,20.63,92.84,19.92,93.32,19.5Z"/><path class="cls-10" d="M98.32,19.5a3.7,3.7,0,0,0,1.23-2.56,4.74,4.74,0,0,0-.2-1.63,5.52,5.52,0,0,0-.29-.77,1.66,1.66,0,0,0-.18-.35c-.08-.09,0-.07-.1-.06a.5.5,0,0,1-.5-.5.51.51,0,0,1,.5-.5c.75-.09,1.11.77,1.33,1.33a5.87,5.87,0,0,1,.45,2.15A4.73,4.73,0,0,1,99,20.2C98.55,20.63,97.84,19.92,98.32,19.5Z"/><path class="cls-10" d="M102.32,19.5a3.7,3.7,0,0,0,1.23-2.56,4.74,4.74,0,0,0-.2-1.63,5.52,5.52,0,0,0-.29-.77,1.66,1.66,0,0,0-.18-.35c-.08-.09,0-.07-.1-.06a.5.5,0,0,1-.5-.5.51.51,0,0,1,.5-.5c.75-.09,1.11.77,1.33,1.33a5.87,5.87,0,0,1,.45,2.15A4.73,4.73,0,0,1,103,20.2C102.55,20.63,101.84,19.92,102.32,19.5Z"/><path class="cls-10" d="M106.32,19.5a3.7,3.7,0,0,0,1.23-2.56,4.74,4.74,0,0,0-.2-1.63,5.52,5.52,0,0,0-.29-.77,1.66,1.66,0,0,0-.18-.35c-.08-.09,0-.07-.1-.06a.5.5,0,0,1-.5-.5.51.51,0,0,1,.5-.5c.75-.09,1.11.77,1.33,1.33a5.87,5.87,0,0,1,.45,2.15A4.73,4.73,0,0,1,107,20.2C106.55,20.63,105.84,19.92,106.32,19.5Z"/><path class="cls-10" d="M67,1.51C61.74,3.16,56.19,5,52.24,9.06c-.45.46.26,1.17.7.7,3.83-4,9.23-5.69,14.36-7.29C67.91,2.28,67.65,1.32,67,1.51Z"/><path class="cls-10" d="M68.69,2.08C64.81,3.3,62.18,6.5,59.75,9.57c-.39.5.31,1.22.71.71C62.77,7.36,65.27,4.21,69,3,69.57,2.85,69.31,1.88,68.69,2.08Z"/><path class="cls-10" d="M71.11,2.44a.49.49,0,0,0-.7,0,16.52,16.52,0,0,0-3.3,7.2c-.12.63.84.9,1,.27a15.5,15.5,0,0,1,3-6.76A.51.51,0,0,0,71.11,2.44Z"/><path class="cls-10" d="M73.41,2.65a.5.5,0,0,0-1,0A72.33,72.33,0,0,0,72.7,10c0,.64,1,.64,1,0A72.33,72.33,0,0,1,73.41,2.65Z"/><path class="cls-10" d="M83.41,8.74a12.09,12.09,0,0,0-2.79-4,12.75,12.75,0,0,0-2.25-1.67,12.25,12.25,0,0,0-1.26-.62c-.24-.1-.48-.2-.72-.28s-.51-.11-.57-.23c-.3-.58-1.16-.07-.87.5s.7.53,1.12.67a12,12,0,0,1,1.28.55,10.59,10.59,0,0,1,2.3,1.56,10.94,10.94,0,0,1,3.12,4.55.5.5,0,0,0,1-.13l0-.43A.44.44,0,0,0,83.41,8.74Z"/><path class="cls-10" d="M89.71,7.6c-1-1.85-3.16-3-5-4A35.4,35.4,0,0,0,77.41.71a.5.5,0,0,0-.27,1A34.38,34.38,0,0,1,84,4.39c1.87,1,4.17,2.14,5.06,4.18A.51.51,0,0,0,90,8.46l0-.27A.49.49,0,0,0,89.71,7.6Z"/><path class="cls-10" d="M62.86,1.17q-4.44,1.76-8.72,3.88Q52,6.1,50,7.24a8.14,8.14,0,0,0-3,2.5c-.35.54.52,1,.87.5a7.79,7.79,0,0,1,3-2.33q2-1.1,4-2.1c2.7-1.34,5.46-2.57,8.27-3.67C63.72,1.9,63.46.93,62.86,1.17Z"/><path class="cls-10" d="M96.38,8.75A39,39,0,0,0,85.23,2c-.59-.24-.85.73-.26,1a37.78,37.78,0,0,1,10.7,6.53C96.16,9.87,96.87,9.17,96.38,8.75Z"/><ellipse class="cls-11" cx="89" cy="29" rx="1" ry="3"/><ellipse class="cls-11" cx="59" cy="29" rx="1" ry="3"/></g></g></svg>