<svg xmlns="http://www.w3.org/2000/svg" viewBox="0 0 206.66 214.06"><defs><style>.cls-1{fill:#f9d4b9;}.cls-2{fill:#555250;}.cls-3{fill:#2b2522;}.cls-10,.cls-4,.cls-7{fill:none;stroke-miterlimit:10;}.cls-4{stroke:#efe8e6;}.cls-10,.cls-4{stroke-width:2px;}.cls-5{fill:#e28f50;}.cls-6{fill:#eaa363;}.cls-7{stroke:#c78a67;}.cls-8{fill:#1d1d1b;}.cls-9{fill:#fff;}.cls-10{stroke:#1d1d1b;}</style></defs><g id="Lag_2" data-name="Lag 2"><g id="hoved"><path class="cls-1" d="M160.75,125.19c1.66,9.17,4.26,22.9,8,40q-5,5.49-10,11c-1.82-4.33-4.41-10.86-7-19-2.94-9.2-2.59-10.12-5-18-5.26-17.19-8.94-19.44-11-32-1-5.8-2.66-16.14,2-19,3.16-2,7.9.41,9,1C155.62,93.93,157.23,105.78,160.75,125.19Z"/><path class="cls-1" d="M157.75,173.19c-3,6.89,1.55,13.8,5,17,3.08,2.86,9.53,6.65,14,4,4.08-2.43,4-8.78,4-11-.07-6.52-3.39-17.22-11-18C164.8,164.68,159.74,168.54,157.75,173.19Z"/><path d="M137,130.49a117.56,117.56,0,0,0,21,43l11-9c-3.19-20.47-5.33-35.24-6.63-44.43C160.4,106.55,159.08,96.5,151,90.49c-1-.76-7.83-5.78-12.63-3.43C127.66,92.27,136.54,128.87,137,130.49Z"/><path class="cls-1" d="M20,131.2c-1.66,9.17-4.26,22.9-8,40q5,5.49,10,11c1.82-4.33,4.41-10.86,7-19,2.94-9.2,2.59-10.12,5-18,5.26-17.19,8.94-19.44,11-32,1-5.8,2.66-16.14-2-19-3.16-2-7.9.41-9,1C25.13,99.94,23.52,111.79,20,131.2Z"/><path class="cls-1" d="M23,179.2c3,6.89-1.55,13.8-5,17-3.08,2.86-9.53,6.65-14,4-4.08-2.43-4-8.78-4-11,.07-6.52,3.39-17.22,11-18C16,170.69,21,174.55,23,179.2Z"/><path d="M44.32,137.06a121,121,0,0,1-21,43l-11-9a306.41,306.41,0,0,1,5-46c2.67-14.26,5.37-22.92,13-28,1.38-.92,8.22-5.47,13-3C53.68,99.44,45.29,133.24,44.32,137.06Z"/><ellipse cx="90.82" cy="97.06" rx="44.5" ry="17"/><ellipse class="cls-2" cx="89.82" cy="105.06" rx="40.5" ry="19"/><path class="cls-1" d="M132.32,214.06h-81a163.87,163.87,0,0,0,2-45,133.93,133.93,0,0,0-6-31c-8.33-25.3-20.35-33.31-17-40,2.16-4.3,10.73-8.13,43-2a13.84,13.84,0,0,0,3-7c.65-6.25-4.13-9.13-3-12,2.33-5.91,26.82-4.33,29,3,.63,2.15-.83,4.16,0,9a20.85,20.85,0,0,0,2,6c29.62-11.48,39.85-10.26,43-6,4.16,5.63-4.89,15.4-12,44a220.59,220.59,0,0,0-5,29A190.74,190.74,0,0,0,132.32,214.06Z"/><circle class="cls-1" cx="60.82" cy="137.56" r="21.5"/><circle class="cls-1" cx="121.82" cy="134.56" r="21.5"/><path class="cls-3" d="M131.32,155.06a177.06,177.06,0,0,0,1,59h-81a196.77,196.77,0,0,0,2-34,198.59,198.59,0,0,0-2-23,21.3,21.3,0,0,1-9-8,21.66,21.66,0,0,1-3-13,23.42,23.42,0,0,1,3-10c-1.72-3-3.11-5.46-4-7-2.47-4.26-4.46-8.78-7-13-1.14-1.88-2.29-3.68-2-6a7.3,7.3,0,0,1,2-4c2.2-2.35,5.3-2.53,7-3,4.65-1.29,8.58-1.12,17,0,10,1.33,14.94,2,18,3a56,56,0,0,1,18,10,48.29,48.29,0,0,1,13-11c3.84-2.22,6.9-3.26,12-5a87.71,87.71,0,0,1,17.92-3.92,28.6,28.6,0,0,1,5.08-.08c3.31.25,6.36.47,8,2,2.73,2.55.71,8.24-1,16-3.25,14.74-4.57,15.82-4,21,.38,3.47,1.18,5.41,1,10a25,25,0,0,1-2,10A21.94,21.94,0,0,1,131.32,155.06Z"/><path class="cls-4" d="M79.32,107.06a41.34,41.34,0,0,0-3,16c.21,11.21,5.21,16.19,6,28a48.08,48.08,0,0,1-2,17"/><path class="cls-4" d="M101.71,107a64.47,64.47,0,0,1,2.61,16.06c.4,12.5-3.18,18.66-3,33a83.86,83.86,0,0,0,1,12"/><path class="cls-5" d="M133.12,63.64c0-1.56-.09-3.13-.1-4.7,0-2.07.06-4.15.2-6.22a.43.43,0,0,0-.5-.47.45.45,0,0,0-.69.14,31.82,31.82,0,0,0-3,7.09.47.47,0,0,0-.25.31c-.06.24-.11.49-.16.73a.36.36,0,0,0-.21.3c0,.16-.05.32-.07.48-.37.84-.72,1.69-1.06,2.54a.5.5,0,0,0-1,.09,17.24,17.24,0,0,0,0,2.59c-.26.73-.49,1.48-.71,2.22l-.15.48a.51.51,0,0,0-.43.12,41,41,0,0,0-4.76,5,20.23,20.23,0,0,0-3.35,3.51c.07-.13.14-.26.22-.38a.51.51,0,0,0,.07-.3l.31-.65a.56.56,0,0,0,.05-.3,3.18,3.18,0,0,1,.16-.32.5.5,0,0,0-.87-.5,20.27,20.27,0,0,0-1.09,2q-.33.52-.63,1.08c-.49.67-1,1.34-1.41,2,0-.19,0-.37,0-.56a.51.51,0,0,0-1-.14,12.5,12.5,0,0,0-.5,2.55c.18,0,.36.13.54.18a9.88,9.88,0,0,1,3.5.85l.15.06a.81.81,0,0,0,.14-.12h0a.65.65,0,0,0,.18.15.26.26,0,0,0,0,.08c1,.4,2.06.81,3.07,1.27.35.16.7.32,1,.5l0-.05.14,0a.16.16,0,0,0,0,.07c.53.26,1,.55,1.56.85l.1,0s0,0,0,0a11,11,0,0,1,1.76,1.33l0,0a.49.49,0,0,0,.1.15h0a.14.14,0,0,0,.08,0,15.54,15.54,0,0,1,1.53-.38,9.33,9.33,0,0,1,2-.21l.13-.06.4,0,.18,0,.21-.06a16.76,16.76,0,0,1,4.26-.84,10.78,10.78,0,0,0-.15-2c.06-.93.18-1.85.3-2.77a61.75,61.75,0,0,0,.47-6.22C134,71.43,134.23,67.34,133.12,63.64Zm-5.21,17.57,0-.25c0-.68-.07-1.37-.1-2,0-.53,0-1.06,0-1.58a1,1,0,0,0,.52.08Zm2.2-10.66c0,.11-.05.22-.09.33l-.13-.06c0-.36.07-.71.11-1.07a.16.16,0,0,0,0-.1.41.41,0,0,0,.19-.08c0,.24.08.49.14.73A.52.52,0,0,0,130.11,70.55Z"/><path class="cls-5" d="M57.82,85.93l.08,0,.76-.26.39-.54a.57.57,0,0,0,.28.17l-.08.11c.44-.21.91-.38,1.37-.55.9-.33,1.83-.59,2.74-.89s1.81-.71,2.73-1c.57-.2,1.14-.42,1.72-.56.06-.12.12-.24.17-.37a.51.51,0,0,0-.74-.57l-.36.3a.5.5,0,0,0-.77-.12c-.16.14-.29.29-.44.43l-.08,0,.42-.62a.43.43,0,0,0,.07-.32c.06-.09.13-.18.19-.28a.48.48,0,0,0-.24-.69c.11-.18.24-.35.35-.52a.49.49,0,0,0-.33-.73.53.53,0,0,0-.87-.37l-.42.44a.45.45,0,0,0-.28-.06A.47.47,0,0,0,64,78.8s0,0-.06,0l.07-.26c.17-.63.28-1.13-.44-1.43A1.31,1.31,0,0,0,63,77a.32.32,0,0,0,0-.16l.73-1.23c.27-.48-.42-1.06-.79-.61l-.85,1.08a.56.56,0,0,0-.64-.32l.67-.87c.39-.49-.27-1.2-.71-.71l-.65.75a.45.45,0,0,0-.16,0,.34.34,0,0,0-.2,0,.52.52,0,0,0-.58-.69l.18-.27c.32-.47-.42-1.05-.78-.61s-.66.84-1,1.26l-.06,0c-.4-.43-.81-.85-1.21-1.27.06-.13.11-.26.17-.4a.46.46,0,0,0-.3-.58q.3-.75.57-1.5c.18-.55-.63-.86-.92-.39s-.56,1-.85,1.45l0,0v0c.12-.22.23-.45.36-.67a.51.51,0,0,0-.73-.66.64.64,0,0,0,0-.07l.34-.58a.47.47,0,0,0-.35-.72l.3-.51a.49.49,0,0,0-.53-.72.5.5,0,0,0-.79-.13l-.21.27a.38.38,0,0,0-.5.13l-.07.1h0v0l-.13.19,0,0,.45-.83a.49.49,0,0,0-.77-.59.5.5,0,0,0-.7.06c-.19-.32-.39-.63-.59-.94-.39-.83-.74-1.67-1.09-2.5-.45-1.07-.86-2.16-1.24-3.25-.14-1.06-.25-2.12-.37-3.18a.53.53,0,0,0-.78-.42c-.13-.46-.26-.91-.38-1.38a.48.48,0,0,0-.25-.31l-.11-1.16a.55.55,0,0,0-.45-.48L47,53a.54.54,0,0,0-.08-.39l.06-.41a.59.59,0,0,0-.49-.64v-.06a.5.5,0,0,0-.93-.25,9.33,9.33,0,0,0-.44,1,.41.41,0,0,0-.48.35c-.07.33-.12.66-.17,1a.66.66,0,0,0-.28,0c0-.37,0-.73,0-1.1a.48.48,0,0,0-.38-.46A10,10,0,0,0,43.43,51c-.16-.4-.88-.53-1,0v0a.56.56,0,0,0-.4.61c.1.5.16,1,.23,1.51a13.6,13.6,0,0,0,.29,3.11.48.48,0,0,0,.67.31c0,.1,0,.2,0,.3v.11a.4.4,0,0,0,.27.44.53.53,0,0,0,0,.25c0,.27.11.54.16.81a.49.49,0,0,0,.11.2c.65,2.92-.14,6,0,9,0,.64.13,1.28.21,1.92A69,69,0,0,0,42.68,77a.53.53,0,0,0,.8.53,20.72,20.72,0,0,0,.11,6.85c0,.22-.07.44-.1.67a.45.45,0,0,0-.58.33,15.74,15.74,0,0,0,.09,7h0l.18.08h0a6.28,6.28,0,0,1,1.44.12v0l0,0,.61.1.4,0h.43c.33,0,.67,0,1,0a13,13,0,0,1,1.65,0l.27-.21,0,0,.06,0a2,2,0,0,1,.2-.3,3.33,3.33,0,0,1,.63-.56s0,0,0,0a3.19,3.19,0,0,0,.26-.26c.31-.32.59-.67.91-1a24.22,24.22,0,0,1,2.36-1.93A16.39,16.39,0,0,1,57.76,86ZM63.06,78l-.21.8a.55.55,0,0,0-.31-.14.48.48,0,0,0-.1-.46A1,1,0,0,1,63.06,78ZM46.63,69.46s-.05-.11-.08-.16a.47.47,0,0,0-.54-.21h0a64.32,64.32,0,0,1-.7-7.84.45.45,0,0,0-.23-.39c0-.14,0-.28,0-.42a.42.42,0,0,0,.22,0c0,.24,0,.48,0,.72a.71.71,0,0,0,.06.22,23.68,23.68,0,0,0,.87,5.61,19.09,19.09,0,0,0,.44,2.51Z"/><path class="cls-5" d="M46.44,80.13c0-1.54,0-3.08,0-4.61a.5.5,0,0,0-1,0c0,.64,0,1.28,0,1.92a12.81,12.81,0,0,0-.58,3.74.47.47,0,0,0,.61.47v.21a.7.7,0,0,0,0,.14c0,.51,0,1,.09,1.53s1,.64,1,0C46.51,82.39,46.47,81.26,46.44,80.13Z"/><path class="cls-6" d="M113.78,82.68l.18-3.4c0-.64-1-.64-1,0-.06,1.1-.12,2.19-.17,3.29h0A6.25,6.25,0,0,1,113.78,82.68Z"/><path class="cls-6" d="M114.8,82.92c.35.11.7.23,1,.36,0-.25,0-.49-.07-.74a32.54,32.54,0,0,1-.08-3.42.5.5,0,0,0-1,0,35,35,0,0,0,.1,3.69S114.8,82.89,114.8,82.92Z"/><path class="cls-6" d="M119.34,84.69a103.81,103.81,0,0,1,.13-11.7c0-.64-1-.64-1,0a100.88,100.88,0,0,0-.14,11.27Z"/><path class="cls-6" d="M122.39,86.23l-1.17-15.36c0-.63-1-.64-1,0q.57,7.39,1.12,14.77C121.7,85.83,122.05,86,122.39,86.23Z"/><path class="cls-6" d="M125.53,84.55c-.27,1-.57,1.92-.8,2.89,0,.13-.06.26-.1.4.37-.11.74-.21,1.11-.29.1-.4.2-.79.31-1.18.25-.89.52-1.77.75-2.66.13-.52.23-1,.32-1.55-.05.73-.1,1.45-.14,2.18-.06,1-.14,2-.15,3a7.92,7.92,0,0,1,1-.09c0-1.15.12-2.3.19-3.41.13-2.08.28-4.16.37-6.25a13.18,13.18,0,0,0-.82-5.77c-.81-1.93-2-3.77-1.93-5.94,0-.64-1-.64-1,0,0,.2,0,.39,0,.58a.54.54,0,0,0-.38.59c.55,3.94,2,7.75,2.1,11.74A18.35,18.35,0,0,1,125.53,84.55ZM126,70.77c.13.27.26.54.38.82a12.72,12.72,0,0,1,1,6.25c0,.25,0,.51,0,.77,0-.17,0-.33,0-.49A50.78,50.78,0,0,0,126,70.77Z"/><path class="cls-6" d="M129.59,82.17c-.14,1.62-.25,3.24-.28,4.86l1-.27c.08-3.47.58-6.93.63-10.4a47.18,47.18,0,0,0-1.36-12.3,36.37,36.37,0,0,0-2.4-6.57c-.28-.58-1.15-.08-.87.5C129.94,65.55,130.29,74,129.59,82.17Z"/><path class="cls-6" d="M131.58,69.5c.2,4-.2,8-.34,12-.06,1.67-.06,3.34,0,5,.32-.07.65-.14,1-.18-.35-7.38,1.24-14.82-.35-22.12a50.33,50.33,0,0,0-2-6.6c-.21-.6-1.18-.34-1,.26A39.18,39.18,0,0,1,131.58,69.5Z"/><path class="cls-6" d="M131.39,56.71a21.63,21.63,0,0,0,1,6c0,.42.07.85.11,1.28a40,40,0,0,0,.9,6.26,12.4,12.4,0,0,1,.46,3.26,29.45,29.45,0,0,1-.26,3.25s0,.07,0,.11c-.21,1.45-.47,2.9-.74,4.33a23.82,23.82,0,0,0-.58,5.17,5.49,5.49,0,0,1,1-.06,21.4,21.4,0,0,1,.56-4.84c.4-2.13.78-4.26,1-6.42a27.49,27.49,0,0,0,0-6.41,40.4,40.4,0,0,0-1.39-5.87l-.06-.22a26.8,26.8,0,0,1,1.06-11.19c.22-.61-.75-.87-1-.27a20.24,20.24,0,0,0-1,4.17c0-.33,0-.66-.07-1a10.31,10.31,0,0,1-.25-2.65c0-.26-.25-.5-.5-.5a.51.51,0,0,0-.5.5,4.25,4.25,0,0,0,0,1.07.48.48,0,0,0-.3.45q.12,1.71.39,3.39A.45.45,0,0,0,131.39,56.71Z"/><path class="cls-6" d="M66.09,83l.37-.13a25.51,25.51,0,0,1,1.85-4.34c.3-.57-.56-1.07-.87-.51a26.68,26.68,0,0,0-2.15,5.29Z"/><path class="cls-6" d="M62.33,84.34l1-.31c.08-2.59,1.24-5.21.49-7.82a.5.5,0,0,0-1,.27C63.58,79.09,62.39,81.71,62.33,84.34Z"/><path class="cls-6" d="M60.62,84.9l.25-.08a18.76,18.76,0,0,1,.46-4.47,22.86,22.86,0,0,0,.41-6.7c-.06-.64-1.06-.64-1,0a24.33,24.33,0,0,1-.51,7.12,16.74,16.74,0,0,0-.34,4.4Z"/><path class="cls-6" d="M56.27,86.65a46,46,0,0,1-.11-7.7c.09-2.35.29-4.69.55-7a53.4,53.4,0,0,1,.43,7.15c0,2.42-.3,4.85-.19,7.27.32-.14.65-.26,1-.38-.07-2.38.19-4.76.2-7.13a54.14,54.14,0,0,0-.67-8.72.41.41,0,0,0-.5-.35c0-.29.07-.59.11-.88.09-.64-.91-.63-1,0-.45,3.43-.8,6.85-.93,10.31a44.3,44.3,0,0,0,.17,8C55.63,87,56,86.81,56.27,86.65Z"/><path class="cls-6" d="M53.58,88.31c.28-.21.57-.4.86-.59-.63-6.71.14-13.48.93-20.15.08-.64-.92-.64-1,0-.82,6.9-1.58,13.86-.86,20.8Z"/><path class="cls-6" d="M52.59,89.07a59.13,59.13,0,0,1-.76-12.33c.27-4.9,1.05-9.78.69-14.7-.05-.64-1.05-.64-1,0,.37,5-.45,10-.71,14.95a60.58,60.58,0,0,0,.89,12.83C52,89.57,52.28,89.31,52.59,89.07Z"/><path class="cls-6" d="M47.54,79.28c.22,1.88.51,3.76.74,5.62.3,2.49.6,5,.91,7.46a2.11,2.11,0,0,1,.18-.27,3.33,3.33,0,0,1,.63-.56s0,0,0,0l0,0q-.8-6.42-1.57-12.84a32.36,32.36,0,0,1-.26-7.16,59.21,59.21,0,0,1,1.25-6.74,38.49,38.49,0,0,0,1.1-7.47c0-.65-1-.64-1,0-.11,4.53-1.66,8.84-2.24,13.3-.08.59-.14,1.19-.17,1.78l-.27-1.89c-.16-1.11-.34-2.21-.58-3.29a16,16,0,0,1,.09-3.25,15.21,15.21,0,0,1,1-3.45A33.7,33.7,0,0,1,51.84,53c.38-.52-.48-1-.86-.51-2.23,3-4.34,6.27-5.23,9.89a8.23,8.23,0,0,1,0-3.79c.37-1.18,1.09-2.22,1.56-3.36.25-.59-.72-.85-1-.26-.43,1-1,1.94-1.43,3a6.74,6.74,0,0,0-.27,3.45c.08.53.14,1,.2,1.58a.51.51,0,0,0-.24,0c0-1.52-.09-3-.16-4.57a.24.24,0,0,0,0-.09,13.17,13.17,0,0,1,.13-3.07,3.5,3.5,0,0,1,.92-2.24.49.49,0,0,0,0-.7.5.5,0,0,0-.7,0,3.49,3.49,0,0,0-1.06,2A20,20,0,0,1,44,50.55c.12-.63-.85-.9-1-.26a19.32,19.32,0,0,0-.32,2.92l-.05-.86c0-.64-1-.65-1,0q.51,8.64,1,17.29c.07,1.32.17,2.65.24,4-.23,1.66-.48,3.32-.62,5-.21,2.45-.29,4.91-.4,7.36a33.46,33.46,0,0,0,0,6.33,1.93,1.93,0,0,1,.36.06.86.86,0,0,1,.28,0,2.7,2.7,0,0,1,.41,0h0l.18.08h0a5,5,0,0,1,.55,0,10.73,10.73,0,0,1-.51-3.07,14.56,14.56,0,0,0,1,3.12l1,.17h.14c-1.79-3.35-1.63-7.28-1.45-11.08.16-1.57.28-3.15.38-4.73.19-2.88.45-5.76.49-8.65,0-1.1,0-2.2-.14-3.3.11.34.22.68.32,1,.06,1.15.1,2.3.08,3.46,0,5.25-.58,10.48-.21,15.73a60.24,60.24,0,0,0,1,7.56h.19l.82,0a62.92,62.92,0,0,1-1.14-14.43c0-1.34.1-2.69.16-4,0,.34.07.69.1,1q.42,4.44.82,8.89l.79,8.51c.33,0,.67,0,1,0l-1.23-13.4Z"/><path class="cls-6" d="M58.74,85.69a.5.5,0,0,1,.12,0,6,6,0,0,1,.62-.32c-.16-4.44-.11-8.88,0-13.32,0-.64-1-.64-1,0-.07,4.58-.13,9.16.05,13.74Z"/><circle class="cls-1" cx="89.43" cy="45.29" r="43.5"/><path class="cls-1" d="M47.93,54.79a10,10,0,0,1,0-20"/><path class="cls-1" d="M130.7,54.34a10,10,0,0,0,0-20"/><path class="cls-5" d="M206.17,36.71a.5.5,0,0,0,0,1A.5.5,0,0,0,206.17,36.71Z"/><path class="cls-5" d="M58.94,121q-.16-3.83-.48-7.64a54,54,0,0,0-.93-7.49c-.09-.4-.2-.8-.3-1.19a.45.45,0,0,0,0-.23q-1.09-4.75-1.73-9.58a.53.53,0,0,0-.34-.44c-.14-1.11-.26-2.22-.35-3.34-.05-.63-1.05-.64-1,0,.19,2.15.38,4.29.69,6.42a.41.41,0,0,0-.52.35,18.43,18.43,0,0,0,.1,5.74q.33,3,.74,5.89t.88,5.85c.16,1,.32,1.95.5,2.92,0,.22.09.43.15.64.19,1.64.38,3.27.56,4.9a.65.65,0,0,0,0,.25l.15.85a.46.46,0,0,0,.58.34c0,1.64,0,3.28,0,4.92a.5.5,0,0,0,1,0c0-2.92,0-5.84.12-8.76A.43.43,0,0,0,58.94,121Zm-2-8.79a.49.49,0,0,0,0-.25,23.82,23.82,0,0,0-.7-3.75,8.2,8.2,0,0,0-.36-2c-.17-1.5-.35-3-.52-4.49.35,1.3.74,2.6,1.07,3.92a47,47,0,0,1,1,7.57c.11,1.3.21,2.6.29,3.91-.05-.31-.11-.62-.16-.93C57.36,114.83,57.15,113.49,56.93,112.16Zm.84,8.39c0,.5,0,1-.05,1.5l-.21-1.82a.47.47,0,0,0,.38-.24,2.09,2.09,0,0,1,0,.25A.46.46,0,0,0,57.77,120.55Z"/><path class="cls-5" d="M69.8,127.4c0-.47,0-.94,0-1.41a.5.5,0,0,0,.22-.54l-.78-4.15A.4.4,0,0,0,69,121a22.86,22.86,0,0,0-1.65-4.42.41.41,0,0,0-.46-.25l-.51-1.43a.45.45,0,0,0,.46-.6,8.94,8.94,0,0,0-1.11-2.41.51.51,0,0,0-.81-.06l-.78-1a.46.46,0,0,0-.67,0c-.34-1-.7-2.08-1.08-3.1-1.17-3.2-2.45-6.35-3.58-9.55-.22-.6-1.18-.34-1,.27.94,2.63,2,5.23,3,7.85a.53.53,0,0,0-.31.17,13.53,13.53,0,0,0-.74-1.27c-.3-.45-1.11-.18-.92.39a47.82,47.82,0,0,1,2.52,16,.45.45,0,0,0,.38.47c.09,2.17.2,4.34.42,6.5a35.7,35.7,0,0,0,.3,6.37,4.32,4.32,0,0,0,.53,1.75c0,1.86,0,3.72.07,5.58a.49.49,0,0,0,.37.46c.09,2,.22,3.95.42,5.92a.55.55,0,0,0,.28.41,1,1,0,0,0,.89.82.51.51,0,0,0,.62-.61,22,22,0,0,1-.24-3.53c.27-1.62.49-3.25.7-4.87a.75.75,0,0,0,.09-.24A85,85,0,0,0,66.8,130a.5.5,0,0,0,.31-.43c.15-1.6.37-3.2.64-4.78.19.64.42,1.28.67,1.9.12.79.19,1.59.24,2.39,0,1.08,0,2.17,0,3.24,0,.65,1,.63,1,0a25.87,25.87,0,0,0,0-3.63c0-.18,0-.35,0-.53a.43.43,0,0,0,.18-.37v0a.57.57,0,0,0,0-.18Zm-5.48,13.74c.09-.37.17-.75.24-1.13,0,.17,0,.34,0,.51,0,.74-.11,1.48-.16,2.22C64.36,142.21,64.33,141.68,64.32,141.14ZM62.7,119.38l0,4.17c-.07-1.64-.13-3.28-.19-4.93C62.61,118.87,62.65,119.13,62.7,119.38ZM67,123.21l0-.56a35.47,35.47,0,0,0-.24-3.57.52.52,0,0,0-.48-.47c-.09-.45-.17-.9-.28-1.34a.54.54,0,0,0-.86-.22l-.06-.29a.48.48,0,0,0,.64-.58l-.16-.52c.63,1.73,1.24,3.45,1.84,5.19a.39.39,0,0,0-.38.47s0,.09,0,.13h0v0q.06.45.15.9C67.13,122.65,67.07,122.93,67,123.21Z"/><path class="cls-5" d="M124.55,111.36a.45.45,0,0,0,.07-.24l0-9a.46.46,0,0,0-.36-.46c0-.54,0-1.09,0-1.64a.58.58,0,0,0,0-.19,3.8,3.8,0,0,0-.56-2.93c0-.44,0-.88,0-1.32a.45.45,0,0,0-.29-.44.46.46,0,0,0-.45-.42l.09-.21a.45.45,0,0,0,0-.34c.37-1.1.71-2.22,1-3.35a.57.57,0,0,0-.41-.64.47.47,0,0,0-.54-.43.46.46,0,0,0-.71.13c-.37.78-.75,1.55-1.12,2.32a20,20,0,0,0-1,2l0,.06h0a.54.54,0,0,1,0,.11.43.43,0,0,0,0,.25,36.76,36.76,0,0,0-3.74,8.61.45.45,0,0,0-.36.23q-.42.76-.81,1.56a.48.48,0,0,0-.84,0,12.38,12.38,0,0,0-1.09,2.51,23.62,23.62,0,0,0-1.47,9.68.51.51,0,0,0,.15.31s0,.06,0,.09a36.39,36.39,0,0,0-.34,4.43c0,1.18,0,2.51.88,3.39.46.45,1.17-.26.7-.7a2.52,2.52,0,0,1-.61-1.78.53.53,0,0,0,.56-.49,68.89,68.89,0,0,1,2-12.85,36.47,36.47,0,0,0-.2,3.77.52.52,0,0,0,.74.44c-.08,1-.14,2-.13,3,0,.47,0,.94,0,1.41-.56,5-.58,10.08,1.21,15a.52.52,0,0,0,.1.18l.07.75a4,4,0,0,0,.15,1.09.67.67,0,0,0,.6.42c0,.65,0,1.3.07,1.95a.49.49,0,0,0,.54.47c0,.18,0,.36.08.54.11.57,1,.41,1-.14.07-2.47.06-4.94,0-7.41a.46.46,0,0,0,.08-.3q0-1.09,0-2.19s0-.08,0-.12c0,.48,0,1,0,1.44s.89.71,1,.14c.15-.93.33-1.85.52-2.77a22,22,0,0,0,1.6-5.75c0-.16.05-.33.08-.49.23-.71.46-1.43.72-2.13a.4.4,0,0,0-.08-.44A21.21,21.21,0,0,0,124.55,111.36Zm-7.29-6.08c-.3.87-.59,1.76-.85,2.65a35.47,35.47,0,0,1,2-7.59A48.66,48.66,0,0,0,117.26,105.28Z"/><path class="cls-5" d="M89.51,1.07l0,.06a36.65,36.65,0,0,0-23.26,4c-.29.16-.56.34-.85.51l-.29.11a9.59,9.59,0,0,0-2.66,1.82A36.6,36.6,0,0,0,51.17,20.8a48,48,0,0,0-3.64,11.14.43.43,0,0,0-.18.37c0,1.09-.73,2-.69,3.14A12.22,12.22,0,0,0,47,37.24l.39,1.92h0L47,48.86c-.15,4.08-.41,8.31,1,12.22a.54.54,0,0,0,.41.33c0,.1,0,.21,0,.32.79,11.31,2.28,22.56,3.1,33.87,0,.3,0,.6.06.9v.16a.39.39,0,0,0-.08.22q-.43,8.52-1.14,17a.51.51,0,0,0,.86.35c1.51-1.88,1.49-4.45,1.58-6.75.12-2.82.08-5.64-.06-8.46,0-.83-.1-1.65-.16-2.48.12-2.28.19-4.57.27-6.86a.47.47,0,0,0,.22-.4c0-1.6.08-3.21.12-4.81a13.59,13.59,0,0,0,1.92,3.68,3,3,0,0,0,3.64.47c3.11-2,2-7.31,1.74-10.42-.11-1.73-.28-3.45-.46-5.18a2.45,2.45,0,0,0,.5-1.92c-.56-4.74-.57-10.49-2.34-15,0-1.31,0-2.62-.08-3.91C57.94,49.1,57.44,46,57,42.92c.12-.44.24-.87.39-1.3a2.69,2.69,0,0,0-.06-2c.13-.41.25-.83.38-1.25a.47.47,0,0,0-.34-.59,92.17,92.17,0,0,1,3.07-9.74,2.49,2.49,0,0,0-.1-2.22,46,46,0,0,1,3-5.29c.75-.94,1.51-1.86,2.3-2.77a.45.45,0,0,0,.61-.05,28.78,28.78,0,0,1,10.43-6.31l0,0,5.28-.3a20.42,20.42,0,0,0,2.88.89,10.29,10.29,0,0,0,1.81.85.4.4,0,0,0,.24,0,.6.6,0,0,0,1-.32A9.44,9.44,0,0,0,88,10.83c.06-.67.15-1.34.25-2a31.53,31.53,0,0,1,2.1-7.25C90.62,1,89.76.48,89.51,1.07ZM51.93,88.34c-.2-2.09-.42-4.17-.63-6.25-.35-3.49-.68-7-1-10.48a4.14,4.14,0,0,0,.82.51l0,.08a59.9,59.9,0,0,0,.92,7.93C52.05,82.87,52,85.6,51.93,88.34Z"/><path class="cls-5" d="M130.93,35.31c0-.24,0-.48,0-.72a3,3,0,0,0-.28-1.23A46.2,46.2,0,0,0,129.38,28a37.31,37.31,0,0,0-3.7-8.44c-1.35-3.62-5-7.43-7-9.28-.64-.61-1.31-1.18-2-1.72-.39-.42-.77-.84-1.17-1.24A19.48,19.48,0,0,0,105.6,2,44.05,44.05,0,0,0,94,1.53c-.82.05-1.63.11-2.45.18a.52.52,0,0,0-.85.06.67.67,0,0,0-.13.22c-.74,2.68-1.4,5.37-2,8.09-.15.74-.93,2.79.49,2.74a4.4,4.4,0,0,0,1.58-.59,8.58,8.58,0,0,0,1.29-.87,3.09,3.09,0,0,0,.6.08l.8-.1.16-.07a2.8,2.8,0,0,0,1-.4,1.8,1.8,0,0,0,.21-.08,2.17,2.17,0,0,0,.77-.46,4.18,4.18,0,0,0,.51.07c1.75.07,3.51.77,5.27.94,2.78.26,3.29,1.09,5.63,2.27.67.34,1.46.54,2.09.94,1.38.87,2.07,2.15,3.1,3.37s3.12,2.4,3.39,4.2A2.41,2.41,0,0,0,116.67,24c0,.12,0,.22.06.34a21.62,21.62,0,0,0,1.18,2.58L118,27l.09.67c.12.46.4.88.55,1.31a11.52,11.52,0,0,1,.23,2.82,13.43,13.43,0,0,0,.84,2.86,3,3,0,0,0,.44.9c0,.5,0,1,0,1.48l0,9.91a2.78,2.78,0,0,0-.48.49,1.21,1.21,0,0,1,0,.73,3.4,3.4,0,0,0-.15.57c-.07.77,0,1.55,0,2.32a1.42,1.42,0,0,1-.32.91v1.41a1.41,1.41,0,0,1-.4,1q-.84,18.42-3,36.73c-.46,3.82,5.55,3.79,6,0,.35-2.93.67-5.87,1-8.8a2.76,2.76,0,0,0,2.33-2.06,48.37,48.37,0,0,0,1.59-9.6,3.58,3.58,0,0,0,.77-.23c-.38,2.93-.72,5.86-1,8.8a216.57,216.57,0,0,0-.68,28.25c0,1.15.1,2.3.17,3.45,0,.64,1,.65,1,0a217.32,217.32,0,0,1,.28-28.87c.31-4.14.76-8.28,1.31-12.4a3,3,0,0,0,.8-1.77q.74-6,1.13-12c.09-.76.19-1.53.28-2.29A76.56,76.56,0,0,0,130.93,35.31Z"/><path class="cls-5" d="M54,82.64a.5.5,0,0,0-1,0c0,.39,0,.77,0,1.15a.5.5,0,0,0-.71.44c0,1.3,0,2.6,0,3.89a.46.46,0,0,0-.13.34c.11,2.31.1,4.62,0,6.93a5.49,5.49,0,0,0,0,.58c-.07,1.46-.16,2.93-.31,4.39-.07.64.93.64,1,0,.09-1,.17-1.9.23-2.85a.41.41,0,0,0,.22-.54,3.45,3.45,0,0,1-.15-.83c0-.26,0-.52,0-.78a17.21,17.21,0,0,1,.42-1.89,15.66,15.66,0,0,0,.35-3.34C54,87.63,54,85.14,54,82.64Z"/><path class="cls-5" d="M63.64,104.91c-.12-.31-.23-.63-.35-.94a.48.48,0,0,0-.23-.27.49.49,0,0,0-.19-.49.41.41,0,0,0,.07-.4c-1-3-1-6.3-1.22-9.44-.23-3.32-.45-6.65-.68-10a.5.5,0,0,0-1,0c-.17,1.32-.28,2.64-.34,4l-.21-1.91a.5.5,0,0,0-1,0,30.69,30.69,0,0,0,.09,3.46c-.1-.5-.21-1-.35-1.5a.49.49,0,0,0-.75-.27.51.51,0,0,0-.31.58c0,.09,0,.17,0,.25v.09A.47.47,0,0,0,57,88a.36.36,0,0,0,0-.09c-.06-.21-.14-.41-.19-.62-.14-.6-1-.39-1,.15a.41.41,0,0,0-.2.54c.18.5.38,1,.59,1.47a11.53,11.53,0,0,0,1.2,3.15.14.14,0,0,1,0,.07c.46,1.65.94,3.29,1.54,4.9s1.23,3.09,1.86,4.63c.47,1.15.86,2.78,2.11,3.32C63.26,105.63,63.8,105.37,63.64,104.91Z"/><path class="cls-5" d="M127.38,114.18c0-.3,0-.86-.06-1l-.15-1.35c-.1-.86-.19-1.72-.28-2.57-.19-1.76-.38-3.52-.58-5.27-.06-.5-.13-1-.19-1.49a.47.47,0,0,0,.14-.45,33.31,33.31,0,0,1-.49-3.43,13.94,13.94,0,0,0-.25-4.86v-.44a.4.4,0,0,0,.08-.31c0-.35,0-.71-.09-1.06v-.12c0-1.68,0-3.36.07-5A9.93,9.93,0,0,0,125,82.9a6.09,6.09,0,0,0,.33-1.75.5.5,0,0,0-1,0c0,.16,0,.32,0,.48a5.93,5.93,0,0,1-.19.81.42.42,0,0,0-.18.37c.06,3.07.26,6.13.56,9.19v1.15h0c-.69,1.62-.16,3.43.07,5.1.28,1.95.52,3.9.74,5.86s.42,3.84.63,5.76l.33,2.94.15,1.35c0,.33,0,.68.31.9a.5.5,0,0,0,.6.08.57.57,0,0,0,.3-.53A.59.59,0,0,0,127.38,114.18Z"/><path class="cls-5" d="M120.09,91.89a5.2,5.2,0,0,0-1.72,1.74l.21-1.07a.5.5,0,0,0-1-.27l-.28.89a.54.54,0,0,0-.89.35,72.51,72.51,0,0,1-1.9,10.72.41.41,0,0,0,0,.19c-.15.43-.31.87-.49,1.29-.25.6.72.85,1,.27s.49-1.26.7-1.89c1.78-3.81,3.43-7.67,5.07-11.53C121,92.15,120.56,91.62,120.09,91.89Z"/><path class="cls-6" d="M126.82,75.47a34.43,34.43,0,0,0,3.67-10.17A63.65,63.65,0,0,0,131.24,54c0-4-.08-8.06-.13-12.08a66.72,66.72,0,0,0-.8-11.74,37.37,37.37,0,0,0-3.25-9.47,45.6,45.6,0,0,0-5.48-8.47,47,47,0,0,0-7.36-7.42A19.65,19.65,0,0,0,111,2.74a.56.56,0,0,0-.24-.18,2.46,2.46,0,0,1-.29-.09A20.87,20.87,0,0,0,103.48.6a51.72,51.72,0,0,0-11.39.48l-.83,0c-.63,0-.64,1,0,1a.42.42,0,0,0,.26.06l.65-.08c.94,0,1.89,0,2.83,0-.61.09-1.21.19-1.81.34a18.28,18.28,0,0,0-2.6.83c-.59.23-.33,1.2.27,1A19.48,19.48,0,0,1,95.47,3a.44.44,0,0,0,0,.68,33,33,0,0,0-5.05.68c-.63.13-.36,1.1.26,1a31.38,31.38,0,0,1,11.75-.28.47.47,0,0,0,.32.13l.83.08a32.47,32.47,0,0,1,4.53,1.29A16.6,16.6,0,0,1,112,9.15a3.34,3.34,0,0,1,.25.4.43.43,0,0,0,.38.25,19.88,19.88,0,0,1,2.18,3.33,16.37,16.37,0,0,0-1.24-1.26A25.4,25.4,0,0,0,100.42,6,56.19,56.19,0,0,0,91,5.34a.5.5,0,0,0,0,1c5.19,0,10.51.33,15.39,2.28a22,22,0,0,1,2.3,1.09,32,32,0,0,0-18.14-2.4c-.64.09-.37,1.06.26,1a33.77,33.77,0,0,1,4.82-.35,14.8,14.8,0,0,0-2.53.69A15.25,15.25,0,0,0,90.41,10c-.54.34,0,1.21.51.87,7.2-4.54,16.66-1.56,22,4.54,4.41,5.05,6.34,11.55,6.94,18.16a40.86,40.86,0,0,0-4.58-12.79c-.85-1.43-8.23-11.3-17.86-10.65a18.33,18.33,0,0,0-7.09,2c0,.12,2.71-.76,5-1,7.36-.82,14.63,4.52,18.39,9,1.67,2,4.27,5.59,6.35,21,0,.21,0,.42,0,.62-.27,5.37-1,10.7-1.7,16s-1.24,10.66-1.69,16-.68,10.75-.84,16.14c-.08,2.66-.24,5.28-.55,7.89a.44.44,0,0,0-.3.44c0,4.15-2.41,7.73-3.33,11.67a28.52,28.52,0,0,0-.49,6.65c0,2.23,0,4.45.17,6.68a35.67,35.67,0,0,0,1.25,7.47c.15.52,1,.45,1-.13a57,57,0,0,1,1.19-14.81c0,2.33.08,4.67.19,7a75.22,75.22,0,0,0,1.3,11.19,40.62,40.62,0,0,0,4.23,11.75c.27.48,1.13.15.91-.39-2.89-7.19-.25-14.89,1.82-21.91a49.6,49.6,0,0,0,2.21-11.43c0-.67,0-1.34,0-2,.77,6.51,1.62,13,2.48,19.51.16,1.17.32,2.35.47,3.52.08.56,1,.43,1-.13l-2.1-28.95q-.9-12.6-1.82-25.2c.07-.29.13-.57.19-.85Zm-7.26-64.08a47,47,0,0,1,5.79,8.21,37.56,37.56,0,0,1,3.6,9.07A49.92,49.92,0,0,1,130.09,40q.06,4.46.1,8.91c-.07-.9-.14-1.8-.2-2.69a72,72,0,0,0-1.18-10.47c-.72-3.14-1.78-6.22-2.78-9.27A82.87,82.87,0,0,0,122.79,18,40.92,40.92,0,0,0,118,10c-.19-.29-.37-.59-.57-.87C118.19,9.86,118.89,10.63,119.56,11.39Zm-17.4-9.88a.56.56,0,0,0,.17.26c-.82-.11-1.63-.22-2.45-.31C100.65,1.45,101.41,1.46,102.16,1.51Zm3,3a15.09,15.09,0,0,0-1.66-.25l-.47-.1a33.22,33.22,0,0,0-6.52-.51,9.73,9.73,0,0,1,4.27-.56,19.09,19.09,0,0,1,5.51,1.72C106,4.71,105.6,4.6,105.21,4.52ZM111.9,6.8a29,29,0,0,0-6.31-3.57,20.44,20.44,0,0,1,5.5,1.42,12.64,12.64,0,0,1,4.32,3.43,19.29,19.29,0,0,1,1.24,1.62.57.57,0,0,0,.11.22l.56.75c.58.88,1.12,1.79,1.65,2.7a.47.47,0,0,0,.38.23,59.36,59.36,0,0,1,5.44,12.31c1,2.95,2,5.92,2.77,8.93a57.29,57.29,0,0,1,1.35,10.37q.45,5.86.88,11.71a.49.49,0,0,0,.42.46c-.05,1.86-.15,3.7-.37,5.55A33.24,33.24,0,0,1,128.58,69a33.84,33.84,0,0,1-2.31,5.36,114,114,0,0,0,1.63-28.21,105.1,105.1,0,0,0-2.05-15,51.18,51.18,0,0,0-4.78-13.74A31.71,31.71,0,0,0,111.9,6.8Zm12.68,60.45-.13-1.82.06-.89a89.75,89.75,0,0,0,.12-12.38,109.4,109.4,0,0,0-2.26-15.48c-.11-1.56-.22-3.12-.36-4.68a69.79,69.79,0,0,0-1.22-8.53,24.08,24.08,0,0,1,1.21,4c.65,3.12.93,6.34,1.33,9.51.8,6.37,1.54,12.76,2,19.18a49.3,49.3,0,0,1,.15,5.3,33.06,33.06,0,0,1-.71,5.15C124.68,66.79,124.63,67,124.58,67.25ZM124.36,78c-.26.51-.52,1-.76,1.56,0-.88-.1-1.76-.14-2.64a.5.5,0,0,0,.73-.43c0-.21,0-.42,0-.62Zm-1.74,7.39q-1.07,3.63-2.37,7.19l-.15.34a.47.47,0,0,0-.33,0,78.61,78.61,0,0,0,.83-12.45c.56-1.46,1.16-2.91,1.76-4.34l.06-.15c.09,1.86.2,3.72.32,5.58a17.92,17.92,0,0,0-.93,3.26A.52.52,0,0,0,122.62,85.38ZM120.94,34.8l.48,2.2c.17,2.42.33,4.85.51,7.27l.23,3.25a.48.48,0,0,0-.27.3c0,.09,0,.19-.08.28-.09-1-.17-1.92-.28-2.88-.16-1.45-.33-2.91-.52-4.38C121.08,38.83,121.07,36.81,120.94,34.8Zm1.32,37.78c0,.3,0,.59,0,.89s-.26.83-.42,1.24c-.41,1.06-.85,2.11-1.3,3.16-.1-6.47-.44-13,.17-19.4.14-1.41.34-2.82.58-4.21C121.77,60.36,122,66.46,122.26,72.58Zm-.19-21.8c.08-.31.18-.61.26-.91l1.14,15.71c-.08,1.29-.18,2.59-.35,3.88C122.87,63.22,122.6,57,122.07,50.78Zm1-3.92c.17,1.36.32,2.73.44,4.1.14,1.74.2,3.47.23,5.2Q123.44,51.51,123.11,46.86ZM114.86,16.2a23.09,23.09,0,0,0-4.18-4.31,25.84,25.84,0,0,1,4.6,3.52,15.82,15.82,0,0,1,1.14,1.85c.31.95.59,1.91.86,2.87A27.15,27.15,0,0,0,114.86,16.2Zm4.86,9.35A.48.48,0,0,0,120,25,35.39,35.39,0,0,0,118,18.55c.21.3.41.61.62.92a48.64,48.64,0,0,1,2.13,10.36l-.39-1.61C120.17,27.33,120,26.44,119.72,25.55Zm-2.38,51.53c.4-5.57,1-11.13,1.63-16.67.56-4.73,1.23-9.45,1.67-14.19.16,1.52.28,3,.41,4.54-2.41,9.59-1.47,19.61-1.44,29.47,0,.11-.09.21-.13.32a58.31,58.31,0,0,0-2,6.2c-.27,1.06-.49,2.12-.67,3.19C116.94,85.65,117,81.36,117.34,77.08Zm1.18,19.57c-.3.76-.61,1.52-.89,2.29-.88-5.38.22-10.61,2-15.66,0,.73,0,1.45-.06,2.18a58.15,58.15,0,0,1-1.36,10.59A.5.5,0,0,0,118.52,96.65Zm-2.14-.13a25.93,25.93,0,0,0,.29,2.78.44.44,0,0,0,.72.27,2.09,2.09,0,0,1-.08.23c-.45,1-.9,2-1.38,3-.37.77-.75,1.53-1.13,2.3A56.61,56.61,0,0,0,116.38,96.52Zm-1.44,13.57a84.58,84.58,0,0,0-2.26,12c-.1,1-.17,2-.21,3a73,73,0,0,1-.37-8.1,31.55,31.55,0,0,1,.38-6.66,28.29,28.29,0,0,1,1.5-4.56c-.18.64-.37,1.26-.57,1.89-.1,1.08-.27,2.16-.46,3.23.85-1.67,1.71-3.34,2.55-5l.12-.26A37.48,37.48,0,0,0,114.94,110.09Zm1,13.9a111.25,111.25,0,0,1-.2-11.55c0-.76.11-1.51.18-2.27.73-2.88,1.55-5.75,2.36-8.59q.69-2.42,1.35-4.81c.45-1.1.88-2.21,1.3-3.32s1.1-2.42,1.66-3.62l0,.25a77.73,77.73,0,0,0-5,18.28,90.23,90.23,0,0,0-.54,19.78c.19,2.63.45,5.25.73,7.87A64.1,64.1,0,0,1,116,124Zm3.44,4.74-.63,7.67a146.58,146.58,0,0,1-1.08-17,77.11,77.11,0,0,1,2.51-19.06c.59-2.27,1.3-4.51,2.1-6.71Q120.85,111.17,119.4,128.73Zm5-18a46,46,0,0,1-2,11.68c-.68,2.33-1.42,4.66-2,7q1.23-14.75,2.44-29.48l.39-4.77C123.75,100.32,124.51,105.48,124.4,110.7Zm1.62-9.8q.53,7.36,1.07,14.74c-.51-4-1-8-1.44-12.07q-1.05-9.51-1.73-19c.25-.9.49-1.81.72-2.72Zm-.69-26.81c-.06.32-.13.63-.19.94v-.15c-.09-1.33-.19-2.66-.29-4,.25-1.28.54-2.56.8-3.84a35.85,35.85,0,0,0,.74-9.24c-.34-6.66-1.1-13.29-1.93-19.9-.4-3.23-.73-6.49-1.29-9.7a24.35,24.35,0,0,0-2.66-7.68c-.32-.57-.66-1.12-1-1.66a26.73,26.73,0,0,0-4.66-8.24,30.29,30.29,0,0,1,4.51,5.74,46.29,46.29,0,0,1,5.16,13.28,98.66,98.66,0,0,1,2.28,14.61A113,113,0,0,1,125.33,74.09Z"/><path class="cls-6" d="M90.14,1c-7.62-2.5-15.75.25-22.72,3.46a39.15,39.15,0,0,0-9.76,6.05,29.75,29.75,0,0,0-6.51,8.36c-3.64,6.8-4.88,14.57-4.78,22.22A101.91,101.91,0,0,0,47.48,54a126.49,126.49,0,0,0,2.31,12.67c.21.86.45,1.71.7,2.56.35,2.62.8,5.23,1.33,7.83.14.64.3,1.28.44,1.92l-1.83,25-2,27.36c-.09.49-.18,1-.29,1.47a.47.47,0,0,0,.4.6.42.42,0,0,0,.64-.18c.1-.2.17-.42.26-.63a.54.54,0,0,0,.22-.25c2-5.29,2.61-10.93,3-16.52q.47-6.15.89-12.32c.56,8.65,2.24,17.28,3.53,25.83a25.81,25.81,0,0,1,.36,6.57,28.1,28.1,0,0,1-1.22,4c-.2.53.65.88.92.39a11.4,11.4,0,0,0,1.25-4c1.23-5.24,1.16-10.74,1.1-16.1-.05-3.63-.11-7.28-.52-10.9-.1-.86-.23-1.71-.37-2.55.68,3.49,1.23,7,1.69,10.53,1.16,8.88,1.74,17.82,2.31,26.76.29,4.68.28,9.61,2.2,14a.5.5,0,0,0,.93-.25c-1.05-8.18.86-16.31,1.77-24.41.2-1.76.34-3.53.4-5.3.19,4,.09,8.06,0,12.06a.42.42,0,0,0,.11.32c-.07.19-.11.4-.18.59-.23.61.74.86,1,.27a46.54,46.54,0,0,0,2.45-7.81,34.56,34.56,0,0,0,.39-8.13,23.06,23.06,0,0,0-1.47-7.75,62.27,62.27,0,0,0-3.73-7.21c-.7-1.26-1.4-2.52-2.09-3.78-.1-.31-.21-.62-.3-.94A60.89,60.89,0,0,1,62,90.09c-.16-5.35-.4-10.69-.85-16s-1-10.6-1.71-15.89S58,47.6,57.71,42.27c0-.2,0-.41,0-.61,2.08-15.27,4.71-18.86,6.39-20.81,3.79-4.4,11.11-9.7,18.52-8.89,2.27.25,5,1.11,5,1a18.66,18.66,0,0,0-7.14-2c-9.7-.64-17.14,9.15-18,10.57a40.43,40.43,0,0,0-4.62,12.7c.6-6.57,2.56-13,7-18,5.36-6.06,14.89-9,22.15-4.5.55.34,1-.53.51-.87a15.33,15.33,0,0,0-2.7-1.32,17.85,17.85,0,0,0-12,.11A21.24,21.24,0,0,0,62.89,17c-5.28,7-6.51,15.9-6.21,24.45-.18,1.46-.35,2.92-.52,4.35-.23,2.06-.42,4.12-.59,6.17a.54.54,0,0,0-.33,0c.17-2.38.35-4.76.52-7.14.33-4.48.59-9,1.05-13.43a55.15,55.15,0,0,1,1.53-8.85c1.19-2.37,2.5-4.68,3.83-7,.6-1,1.19-2.1,1.89-3.08.71-.58,1.44-1.14,2.18-1.7a37.69,37.69,0,0,1,5-3.41,18.81,18.81,0,0,1,7.67-.86q.38.06.75.15a45,45,0,0,1,6.7,2q.54.29,1,.6c.46.29.87-.26.69-.65a.54.54,0,0,0-.33-.46l-1-.4a20.22,20.22,0,0,0-7.59-2.26,16.35,16.35,0,0,0-3.68-.36.46.46,0,0,0-.36-.14,15.25,15.25,0,0,0-2.52.33,15.09,15.09,0,0,0-2.14.63c.31-.16.63-.3,1-.45a16.39,16.39,0,0,1,8.44-.77c2.87.52,5.51,1.87,8.34,2.55.63.15.89-.81.27-1l-.33-.09a.46.46,0,0,0,0-.84A25.67,25.67,0,0,0,80.7,3.34a9.47,9.47,0,0,0-1.59-.29c-.33,0-.66,0-1,0a25.17,25.17,0,0,1,8.35.19,21.72,21.72,0,0,1,2.41.59.5.5,0,0,0,.27-1,27,27,0,0,0-15.74.23c.75-.26,1.49-.51,2.25-.73A25.71,25.71,0,0,1,87.1,1.25a19.14,19.14,0,0,1,2.78.69C90.49,2.14,90.75,1.18,90.14,1ZM49,57.68c-.18-1.16-.36-2.33-.52-3.49.11.5.23,1,.37,1.49a.46.46,0,0,0,.58.33c0,.22,0,.44.07.65,0,1.65.09,3.3.2,5C49.48,60.3,49.25,59,49,57.68Zm.13-11.84a63.33,63.33,0,0,0,0,6.75,34,34,0,0,1-.57-7.8.44.44,0,0,0,.3-.45c0-.84,0-1.68,0-2.53,0-.27.07-.55.11-.82a40.1,40.1,0,0,1,2-7.4A64.5,64.5,0,0,0,49.16,45.84ZM49,36.71a39.91,39.91,0,0,1,1.31-9.23,23.13,23.13,0,0,1,3.67-7.59,37.06,37.06,0,0,1,3.78-4.24,45,45,0,0,0-2.17,4.47c-.49,1.18-1,2.36-1.41,3.55l-.51,1.12A89,89,0,0,0,49,36.71Zm2.74,33.15c-.07-.23-.13-.47-.19-.71-.2-1.42-.35-2.84-.49-4.27.53,2.16,1.14,4.3,1.81,6.42l-.11,1.63C52.34,71.92,52,70.9,51.69,69.86ZM53,94.2c-.5,3.37-1.09,6.72-1.51,10.1,0,.38-.08.77-.12,1.15,0,0,0-.09,0-.12l.31-4.26q.69-9.46,1.39-18.94c.24.9.47,1.8.73,2.7C53.53,88,53.28,91.08,53,94.2Zm1-12.34c-.26-1-.49-2-.71-3l.12-1.64c.24.58.48,1.17.74,1.75C54.07,80,54,80.91,54,81.86Zm.26-5-.7-1.71.1-1.33.66,2Zm-.41-5.68c.12-1.57.24-3.14.35-4.72.14.56.29,1.12.45,1.67-.07,1.64-.13,3.27-.2,4.9Zm3.68,54.22c-.24-1.44-.49-2.89-.72-4.33A155.93,155.93,0,0,1,54.4,99.73c0-.48,0-1,0-1.45,1.47,7.73,2.91,15.5,3.13,23.36C57.55,122.89,57.55,124.14,57.51,125.38Zm.92,3.3c0,.66-.08,1.32-.14,2,0-.24-.07-.48-.1-.72v0c1.08-9.82-.63-19.64-2.39-29.27-.43-2.33-.86-4.65-1.28-7,0-.87.12-1.73.21-2.59.35,5.57,2.2,11,3,16.5a79.11,79.11,0,0,1,.72,10.88C58.55,121.86,58.62,125.28,58.43,128.68Zm5.16,14.13c0,.13,0,.26,0,.39-.25-3.9-.5-7.81-.81-11.71a222.58,222.58,0,0,0-3.4-26.24c0-.21-.1-.42-.14-.63a32.46,32.46,0,0,1,1.84,5.23,77,77,0,0,1,1.18,10.29q.45,5.2.76,10.42.36,5.83.53,11.68a.56.56,0,0,0,.07.24C63.6,142.59,63.59,142.7,63.59,142.81Zm1.49,1.29c-.23,1.8-.41,3.61-.51,5.42C64.1,139.33,66.42,129.21,66,119c0-.49-.07-1-.11-1.47.22.77.41,1.54.56,2.33C67.93,127.9,66.08,136.11,65.08,144.1ZM69.55,124c.06,1,.11,2,.16,3l0,.79-.18,4.49a.44.44,0,0,0-.46.25,68.1,68.1,0,0,0-1.34-14.4,25,25,0,0,1,1.77,4.78C69.51,123.25,69.53,123.62,69.55,124ZM65,111.43c.37,1,.76,1.95,1.16,2.92a.51.51,0,0,0-.24.16c-.22-.62-.45-1.24-.69-1.85-.08-.44-.18-.88-.27-1.32Zm-2.82-3.65c.68,1.66,1.4,3.31,2.06,5,1.37,7.18.66,14.51,0,21.8q-.33-6.6-.86-13.19c-.28-3.38-.5-6.8-1-10.16a22.11,22.11,0,0,0-1.27-4.72c-.58-1.47-1.26-2.91-1.79-4.41a30.74,30.74,0,0,1-1.05-3.87Q60.2,103,62.17,107.78Zm-5-22.23s0-.07,0-.11l1.27,2.64c.08.24.14.49.22.74.17,1.18.36,2.37.58,3.55q.65,3.54,1.56,7A74.84,74.84,0,0,1,57.13,85.55Zm4,8.37c0,.58.1,1.15.14,1.72-.18-1-.38-1.91-.6-2.86l.16.33a.43.43,0,0,0,.28.24C61.11,93.54,61.11,93.73,61.12,93.92ZM61,91.2l-1.47-3c-.5-3.55-.83-7.12-1-10.71q.49.89,1,1.74a.51.51,0,0,0,.94-.28C60.73,83,60.82,87.1,61,91.2ZM58.74,60.89c.66,5.5,1.24,11,1.65,16.55,0,.48,0,1,.08,1.44a.56.56,0,0,0-.07-.19,35.88,35.88,0,0,1-2-3.62c-.18-4.26-.2-8.52-.13-12.78,0-1.92,0-3.83,0-5.74C58.39,58,58.57,59.44,58.74,60.89Zm-.83,22.38q-.79-2.38-1.61-4.75c-.16-2.11-.26-4.23-.28-6.34.4,1,.84,2,1.32,3Q57.51,79.25,57.91,83.27Zm-.85-36.45c.11,1.13.23,2.27.36,3.4a.51.51,0,0,0-.69.07C56.83,49.13,56.94,48,57.06,46.82Zm-.92,18c.13-2.82.25-5.64.11-8.46.12-1.75.25-3.5.4-5.25a56.1,56.1,0,0,1,.6,10.36c0,3.49-.11,7,0,10.48,0,.22,0,.45,0,.67-.44-1.09-.86-2.18-1.22-3.3Q56,67,56.14,64.79Zm-.47,17.6A79.55,79.55,0,0,0,58.1,94.53c-.26-.68-.5-1.36-.75-2l-.15-1.31a.54.54,0,0,0-.49-.47c-.34-1-.67-2-1-2.93,0-.14,0-.29,0-.43a.42.42,0,0,0-.3-.46c-.18-.58-.38-1.15-.55-1.74,0-.2,0-.39,0-.59a.45.45,0,0,0-.12-.34L55,81C55.22,81.45,55.45,81.92,55.67,82.39Zm-.42-26.23c-.19,2.85-.34,5.7-.47,8.55-.12-.57-.24-1.14-.35-1.71l.66-8.92C55.16,54.77,55.21,55.47,55.25,56.16Zm.43-23.46c-.42,4.65-.71,9.3-1,13.95l-.87,11.89a101.34,101.34,0,0,1-.47-14.86,59.29,59.29,0,0,1,1-10.13,39.26,39.26,0,0,1,2.08-6.69C56.09,28.79,55.86,30.75,55.68,32.7Zm2.13-11.83c-.14.45-.28.91-.4,1.38a52.09,52.09,0,0,0-3.18,7.69,45.44,45.44,0,0,0-1.77,10.29,98.11,98.11,0,0,0,.42,19.31c.15,1.16.34,2.31.55,3.46L53,68.52c-.5-1.71-1-3.43-1.37-5.17a63.33,63.33,0,0,1-1.14-6.7,107.73,107.73,0,0,1,.37-11.78,96.16,96.16,0,0,1,2.29-14.5,55.5,55.5,0,0,1,2.06-6.73c.46-1,.94-1.93,1.47-2.87a24.14,24.14,0,0,1,1.51-2.31c-.29.6-.56,1.2-.82,1.82C57.26,20.62,57.52,20.84,57.81,20.87ZM69.61,4.53a27.37,27.37,0,0,0-8.09,5.85c-.47.5-.91,1-1.34,1.56a59.06,59.06,0,0,0-6.37,6.48C50.12,23,48.57,28.57,48.09,34.36c-.21,2.49-.23,5-.2,7.5A33.89,33.89,0,0,0,47.6,46c0-.3-.05-.61-.07-.91-.5-7.72.07-15.61,3.08-22.8a31.27,31.27,0,0,1,5.54-8.91A31.61,31.61,0,0,1,65,6.75q2.58-1.38,5.3-2.51Z"/><path class="cls-7" d="M96.91,52.12c.91,2.36-2.52,8-8,8s-8.92-5.64-8-8"/><ellipse class="cls-8" cx="72.93" cy="39.79" rx="3" ry="9"/><ellipse class="cls-9" cx="72.93" cy="35.79" rx="1" ry="3"/><ellipse class="cls-8" cx="102.93" cy="39.79" rx="3" ry="9"/><ellipse class="cls-9" cx="102.93" cy="35.79" rx="1" ry="3"/><path class="cls-10" d="M113.53,57a26.48,26.48,0,0,1-48,4"/></g></g></svg>