<svg xmlns="http://www.w3.org/2000/svg" viewBox="0 0 179 226.27"><defs><style>.cls-1{fill:#f9d4b9;}.cls-2{fill:#3a8476;}.cls-3{fill:#459e8f;}.cls-4{fill:#5cb3e5;}.cls-5{fill:#2b8bba;}.cls-6,.cls-9{fill:none;stroke-miterlimit:10;}.cls-6{stroke:#c78a67;}.cls-7{fill:#1d1d1b;}.cls-8{fill:#fff;}.cls-9{stroke:#1d1d1b;stroke-width:2px;}.cls-10{fill:#5c2c10;}</style></defs><g id="Lag_2" data-name="Lag 2"><g id="hoved"><path class="cls-1" d="M20,137.1c-1.66,9.17-4.26,22.9-8,40l10,11c1.82-4.32,4.41-10.86,7-19,2.94-9.2,2.59-10.12,5-18,5.26-17.19,8.94-19.44,11-32,1-5.8,2.66-16.14-2-19-3.16-1.95-7.9.42-9,1C25.13,105.84,23.52,117.69,20,137.1Z"/><path class="cls-1" d="M23,185.1c3,6.89-1.55,13.81-5,17-3.08,2.86-9.53,6.66-14,4-4.08-2.43-4-8.77-4-11,.07-6.51,3.39-17.22,11-18C16,176.59,21,180.45,23,185.1Z"/><path class="cls-2" d="M45.63,145.27a84.75,84.75,0,0,1-6,18,76.24,76.24,0,0,1-16,22l-13-8c2.82-16.07,5.7-32.3,9-51,1.7-9.67,3.63-20.69,12-25,.85-.44,6.46-3.33,11-1C54.35,106.29,46.35,142,45.63,145.27Z"/><path class="cls-1" d="M159,137c1.66,9.16,4.27,22.9,8,40l-10,11c-1.81-4.33-4.4-10.86-7-19-2.93-9.2-2.58-10.12-5-18-5.26-17.19-8.93-19.44-11-32-1-5.8-2.65-16.14,2-19,3.17-2,7.91.41,9,1C153.87,105.76,155.48,117.61,159,137Z"/><path class="cls-1" d="M156,185c-3,6.89,1.56,13.8,5,17,3.09,2.86,9.54,6.65,14,4,4.09-2.43,4-8.78,4-11-.06-6.52-3.38-17.22-11-18C163,176.51,158,180.37,156,185Z"/><path class="cls-2" d="M133.29,144.93a84.36,84.36,0,0,0,6,18,76.05,76.05,0,0,0,16,22q6.5-4,13-8c-1.58-15.92-3.73-29.35-5.66-39.66-4.7-25-8.35-32.93-15.34-36.34-1.21-.59-6.63-3.25-11-1C124.56,106,132.56,141.68,133.29,144.93Z"/><path class="cls-1" d="M143.63,188.27c2.34,18.32-6.91,32.62-10,37h-81c-3.22-3.75-14.66-18-13-37,2.12-24.3,24.8-46,52-46C119.16,142.27,140.59,164.53,143.63,188.27Z"/><circle class="cls-1" cx="67.63" cy="134.27" r="32"/><circle class="cls-1" cx="115.63" cy="134.27" r="32"/><path class="cls-1" d="M141.63,99.27c8.79,9.64-13.29,68.41-50.5,69s-61.38-57.4-52.5-68c6.32-7.56,33.42,4.16,39-6,2.19-4-.1-9.24,3-11s5.92,2.75,13,3,10.28-3.93,13-2c2.88,2-.21,7.18,2,11C113.42,103.56,135.9,93,141.63,99.27Z"/><path class="cls-3" d="M132.63,162.27a30.86,30.86,0,0,1,8,9c6.16,10.66,3.79,22.25,2,31a73.78,73.78,0,0,1-9,23h-81a49.35,49.35,0,0,1-11-16c-1.08-2.54-8.73-21.62,1-39a38.38,38.38,0,0,1,7-9,40,40,0,0,1-7-7,42,42,0,0,1-7-14c-4.22-13.8-6.85-37.45,1-41,.68-.31.51-.06,6-1,5.32-.92,8.57-1.72,10-2,3.73-.75,9.45-.89,18,2a29,29,0,0,0,5.13,4.49,26.71,26.71,0,0,0,6.87,3.51c4.43,1.47,8.05,1.24,12,1a37.21,37.21,0,0,0,10-2,14.07,14.07,0,0,0,4-2c2.43-1.85,2.74-3.59,4-5,1.93-2.17,4.76-2.07,13-2,13.62.11,14.43-.1,16,1,2.81,2,3.9,5.26,5,14,2.37,18.84,3.56,28.27-1,37A37.56,37.56,0,0,1,132.63,162.27Z"/><path class="cls-4" d="M146.63,191.27a186.59,186.59,0,0,1,2,35h-111c-.6-12.79-.43-23.92,0-33,.78-16.67,2.55-25.13,9-31,6.26-5.7,12.26-4.25,48-3,28.36,1,34.49.23,41,6C141.84,170.77,144.62,178.24,146.63,191.27Z"/><rect class="cls-4" x="52.63" y="116.27" width="75" height="61" rx="6.73"/><rect class="cls-5" x="60.63" y="123.27" width="60" height="38" rx="6.73"/><rect class="cls-5" x="45.94" y="91.29" width="13.1" height="35.21" rx="6.55" transform="translate(-47.42 40.84) rotate(-30)"/><rect class="cls-5" x="124.26" y="90.23" width="12" height="35.21" rx="5.32" transform="translate(189.15 266.35) rotate(-150)"/><path class="cls-5" d="M94.63,226.27c-.13,0-.27-3.55-1-9a43.44,43.44,0,0,0-1-6c-.65-1.9-2.81-6.11-12-9a27.92,27.92,0,0,0,27-1c-9.84,3.45-12.47,7.18-13,10-.07.38-.07.52,0,6C94.71,224.34,94.72,226.26,94.63,226.27Z"/><circle class="cls-1" cx="91.13" cy="49.77" r="43.5"/><path class="cls-1" d="M48.63,59.27a10,10,0,0,1,0-20"/><path class="cls-1" d="M132.4,58.81a10,10,0,0,0,0-20"/><path class="cls-6" d="M98.61,56.59c.91,2.37-2.52,8-8,8s-8.92-5.63-8-8"/><ellipse class="cls-7" cx="74.63" cy="44.27" rx="3" ry="9"/><ellipse class="cls-8" cx="74.63" cy="40.27" rx="1" ry="3"/><ellipse class="cls-7" cx="104.63" cy="44.27" rx="3" ry="9"/><ellipse class="cls-8" cx="104.63" cy="40.27" rx="1" ry="3"/><path class="cls-9" d="M115.23,61.5a26.48,26.48,0,0,1-48,4"/><path class="cls-10" d="M135.94,31.06a6.13,6.13,0,0,1-1.21.52,2.16,2.16,0,0,0-.56-1.86,2.1,2.1,0,0,0-1.43-.64l.56-1a.5.5,0,0,0-.57-.73l-.67.23a1.51,1.51,0,0,0-1.42-.48c.23-.59.46-1.18.7-1.77a.52.52,0,0,0-.35-.62l-1.42-.34.82-1.43a.5.5,0,0,0-.18-.68,4,4,0,0,0-2.44-.28l.2-.62a.51.51,0,0,0-.48-.64,4.09,4.09,0,0,0-1.26.31c0-.22-.08-.44-.13-.66a.5.5,0,0,0-.61-.35,4.7,4.7,0,0,1-1.4,0l.58-2.33a.5.5,0,0,0-.48-.64l-2,.26c.31-.64.63-1.27.94-1.91a.5.5,0,0,0-.29-.73l-.93-.17a2.75,2.75,0,0,0,.11-1.73.49.49,0,0,0-.61-.35l-1.83.67.33-1.86a.51.51,0,0,0-.61-.62l-2.58.57.15-2.11a.5.5,0,0,0-.63-.49l-2.41,1a6.46,6.46,0,0,0,0-1.86.5.5,0,0,0-.73-.3l-1.1.82a2,2,0,0,0-3.23-1.5c0-.57.11-1.15.17-1.72,0-.34-.34-.54-.63-.48a4.42,4.42,0,0,0-1.51.64A3.72,3.72,0,0,0,106.48,4a.5.5,0,0,0-.73-.3,7.47,7.47,0,0,0-1.32.82,5.62,5.62,0,0,0,0-1.23c0-.35-.41-.67-.75-.43l-1,.69a4.65,4.65,0,0,0-.16-1.61.52.52,0,0,0-.62-.35,4.24,4.24,0,0,0-1.67,1,4.81,4.81,0,0,0-.37-1.23.5.5,0,0,0-.68-.18,4.58,4.58,0,0,0-1.77,1.36,5.3,5.3,0,0,0-.24-.84.5.5,0,0,0-.83-.22l-.56.66,0-.84c0-.29-.32-.61-.63-.48a4.3,4.3,0,0,0-1.26.78,8.15,8.15,0,0,0-.13-1.2A.52.52,0,0,0,93.14,0a5,5,0,0,0-2,1.44A3.77,3.77,0,0,0,90.67.34a.51.51,0,0,0-.86,0l-.33.59A1.94,1.94,0,0,0,87.84.47a1.92,1.92,0,0,0-1.4,1.31l-.2-.62A.51.51,0,0,0,85.33,1,12.09,12.09,0,0,0,84,3.5a17.5,17.5,0,0,0-.82-2.3c-.16-.37-.67-.26-.86,0l-.49.68A7.86,7.86,0,0,0,81.52.45a.51.51,0,0,0-.84-.22,13,13,0,0,0-1.89,2.24,2,2,0,0,0-1.81-1,2,2,0,0,0-1.47.81l-.13-.51a.5.5,0,0,0-.83-.23,10.49,10.49,0,0,0-1.86,2.78,11.42,11.42,0,0,0-.36-1.23.51.51,0,0,0-.84-.22,9.31,9.31,0,0,0-2,3.29c-.22-.51-.43-1-.65-1.54a.5.5,0,0,0-1,0,24.56,24.56,0,0,0-1,3.47L66,6.85a.51.51,0,0,0-.84.22,13.69,13.69,0,0,0-.36,2.69l-1.35-2a.5.5,0,0,0-.91.12,6.38,6.38,0,0,0-.43,1.72L62,9.42a.5.5,0,0,0-.91.12c-.26,1.24-.51,2.49-.76,3.74l-.84-.78a.51.51,0,0,0-.84.49,14,14,0,0,1,.13,3.36l-2-2a.5.5,0,0,0-.83.48l.33,2.1-1.1-1.39c-.27-.34-.88,0-.86.36.07,1.07.13,2.14.19,3.21L54,18.55c-.27-.35-.87-.06-.85.35,0,.77.07,1.53.1,2.3l-1.14-1.4a.51.51,0,0,0-.86.35,25.82,25.82,0,0,0,.81,5.32,7.1,7.1,0,0,1-1.77-1.56c-.29-.37-.83,0-.85.35a42.46,42.46,0,0,0,0,5.41L48.14,29c-.31-.14-.79,0-.75.43.07.8.15,1.6.22,2.39a3.54,3.54,0,0,0-.74-.23.5.5,0,0,0-.56.73,6.75,6.75,0,0,1,.94,2.39l-1.7-.93a.5.5,0,0,0-.69.68l1,1.91a5,5,0,0,1-.47-.33c-.4-.36-1.11.1-.78.6a7.58,7.58,0,0,0,2.62,2.48l0,0,1.22,1.94-.66.12a.5.5,0,0,0-.34.62c.17.47.35.94.53,1.41a4.56,4.56,0,0,0-.52,0,.5.5,0,0,0-.48.63,14.28,14.28,0,0,0,1,2.45,3,3,0,0,0-.71.12.5.5,0,0,0-.35.61,20.76,20.76,0,0,0,2.55,4.46.52.52,0,0,0,.43.2l.92,1.12c.4.48,1-.13.79-.6L51,50.82c.13.11.25.23.38.33.34.29,1,0,.83-.48-.42-1.16-.85-2.32-1.28-3.48l1.43,1.43c.43.42,1-.11.79-.61a18.25,18.25,0,0,1-1.25-4.09A10.62,10.62,0,0,1,52.3,45a.5.5,0,0,0,1-.26l-.47-3.32.19.41c.22.48.92.21.93-.25L54,37.19v.05A.5.5,0,0,0,55,37a11.69,11.69,0,0,1,0-4l.7,1.19a.51.51,0,0,0,.92-.12c.65-2.48,1.31-5,2-7.44a10.26,10.26,0,0,1,1.68,2.52.5.5,0,0,0,.93-.25,14.66,14.66,0,0,1,.23-5l.39.89a.51.51,0,0,0,.92-.12,23.06,23.06,0,0,1,1.12-4.06,3.47,3.47,0,0,0,.9,1.23,1.23,1.23,0,0,0,1.71-.28,2.84,2.84,0,0,0,.29-1.75,3.6,3.6,0,0,1,0-1.18,14.12,14.12,0,0,0,1.51,2.18.51.51,0,0,0,.84-.22l.78-2.26a8.25,8.25,0,0,1,.34-1c.14-.28.12-.23.29-.11a2,2,0,0,1-.07.19c-.19.49.41.74.77.5l.15.14a1.23,1.23,0,0,0,1.06.24.51.51,0,0,0,.35-.35l.16-.7a1.44,1.44,0,0,0,.79-.45A3.2,3.2,0,0,0,74,17a.5.5,0,0,0,.78-.1l0-.05h.07a1.53,1.53,0,0,0,1-.52c.19-.17.53-.75.81-.78s.49.66.62.89a1.12,1.12,0,0,0,1,.59.49.49,0,0,0,.48-.36,7.21,7.21,0,0,1,.65-1.79c.13.29.25.59.38.89a.53.53,0,0,0,.57.23,1.35,1.35,0,0,0,.82-.83c0,.13.1.28.12.37L81.55,17a.51.51,0,0,0,1,0,9.47,9.47,0,0,1,.85-2l.86,1.16a.51.51,0,0,0,.91-.1l.1.48a.51.51,0,0,0,.92.12l.14-.29a11.73,11.73,0,0,0,.38,1.44.49.49,0,0,0,.76.26l.09,1.84a.5.5,0,0,0,1,.14h0a.48.48,0,0,0,.79-.24c0-.17.08-.33.12-.49.13.49.79.35,1,0l.22-.55.25.44a.51.51,0,0,0,.92-.12c.27-.68.53-1.37.8-2.06,0,.28,0,.57.07.86v0h0a.66.66,0,0,1,0,.14c.09.59,1,.39,1-.14A13.37,13.37,0,0,1,94,15.39c.18.51.38,1,.61,1.5a.5.5,0,0,0,.91-.12L96,14.65a6,6,0,0,0,.42.69,1.06,1.06,0,0,0,.88.33c.45-.07.66-.45.76-.91l0,.07a.48.48,0,0,0,.85.15.47.47,0,0,0,.8-.05c.22-.39.44-.79.67-1.18a8.43,8.43,0,0,1,.19,1.6c0,.55.86.7,1,.13a13.08,13.08,0,0,1,.38-1.36c0,.38,0,.75.07,1.12a.5.5,0,0,0,1,.13l.52-1.25h0a1.73,1.73,0,0,1,.11.73.51.51,0,0,0,.94.26c.07-.15.15-.28.23-.42.18.69.36,1.38.53,2.07a.51.51,0,0,0,.92.12,9.8,9.8,0,0,1,.68-.88,8.75,8.75,0,0,0,.36,2,.5.5,0,0,0,.91.12l.38-.62a6.33,6.33,0,0,0,1,1.94.53.53,0,0,0,.63.17l.24,1.27a.51.51,0,0,0,1,0l.6-2.34c.23.67.45,1.35.68,2a.5.5,0,0,0,1,0c.07-.25.13-.51.2-.77a21.74,21.74,0,0,0,2.32,2.76.49.49,0,0,0,.67,0L118.07,26a.51.51,0,0,0,1,0l.51-1.81.27.38,1.2,3.33c.13.36.72.54.92.12l.22-.48.12.15c.33,1,.65,2,1,3a.48.48,0,0,0,.89.1,21.27,21.27,0,0,1,1.46,3.95.46.46,0,0,0,.68.3,39.9,39.9,0,0,0,1.12,4,.52.52,0,0,0,.83.21,18.27,18.27,0,0,1,0,3.77.5.5,0,0,0,.93.26c.16-.39.33-.78.5-1.17.08.45.17.9.25,1.35s.22,1,.28,1.45a12,12,0,0,1,0,1.59c0,2,.07,3.95.19,5.92a.5.5,0,0,0,.93.25c.07-.11.12-.22.18-.33.18.49.9.31.95-.2s.07-.82.11-1.24a.92.92,0,0,1,0-.15.47.47,0,0,0,.27-.18c.31-.42.35-1.31-.14-1.52L132.51,48a.75.75,0,0,0,.35-.52,4.48,4.48,0,0,0-.3-1.87c-.11-.45-.21-.9-.32-1.35l.13.08a.51.51,0,0,0,.75-.43,23.12,23.12,0,0,0-.32-3l.11.07c.3.16.8,0,.75-.43s-.11-.95-.17-1.42a.72.72,0,0,0,1-.56.48.48,0,0,0,0-.34,2.89,2.89,0,0,0,.77-1.18,2.33,2.33,0,0,0-.09-1.87,2.92,2.92,0,0,0,.84-2.66.37.37,0,0,0-.12-.21l.54-.35A.5.5,0,0,0,135.94,31.06Z"/></g></g></svg>